<svg width="40" height="40" viewBox="0 0 40 40" fill="none" xmlns="http://www.w3.org/2000/svg">
<path fill-rule="evenodd" clip-rule="evenodd" d="M10.9758 8.69506C10.5819 8.28271 9.92344 8.28271 9.52955 8.69506L9.13035 9.11296C8.76116 9.49945 8.76116 10.1079 9.13035 10.4944L28.106 30.3592C28.4999 30.7715 29.1583 30.7715 29.5522 30.3592L29.9514 29.9413C30.3206 29.5548 30.3206 28.9463 29.9514 28.5598L10.9758 8.69506ZM9.02597 17.4298C9.02597 15.8304 9.66214 14.9482 10.9132 14.7461L12.8627 16.787H11.7188C11.3418 16.787 11.1587 16.9787 11.1587 17.3734V21.9966C11.1587 22.3912 11.3418 22.5829 11.7188 22.5829H15.2088C15.5211 22.5829 15.7366 22.6393 15.9951 22.8874L20.4652 27.1159C20.5191 27.1723 20.5837 27.2061 20.6375 27.2061C20.7345 27.2061 20.7991 27.1385 20.7991 27.0257V25.0953L22.9318 27.3279V28.6495C22.9318 29.5178 22.3071 30.1718 21.4669 30.1718C20.8853 30.1718 20.4329 29.9124 19.8512 29.3712L14.9395 24.7705C14.8641 24.7029 14.7887 24.669 14.6917 24.669H11.5142C9.86614 24.669 9.02597 23.7782 9.02597 21.9402V17.4298ZM20.7991 12.3104V16.8865L22.9318 19.1192V10.7543C22.9318 9.87476 22.3071 9.17565 21.4562 9.17565C20.8745 9.17565 20.476 9.44627 19.8512 10.0214L16.8835 12.7875L18.3038 14.2743L20.4544 12.2315C20.5083 12.1864 20.5729 12.1413 20.6375 12.1413C20.7237 12.1413 20.7991 12.2089 20.7991 12.3104ZM27.0424 23.4223L28.5228 24.9722C28.6379 24.8955 28.7427 24.7939 28.831 24.6679C29.725 23.4049 30.2528 21.612 30.2528 19.774C30.2528 17.9247 29.725 16.1544 28.831 14.8689C28.4755 14.3615 27.8508 14.2487 27.3768 14.5757C26.8275 14.9704 26.7198 15.647 27.1614 16.3235C27.7538 17.2031 28.1093 18.4885 28.1093 19.774C28.1093 21.0708 27.7431 22.345 27.1506 23.2245C27.1096 23.2905 27.0736 23.3566 27.0424 23.4223Z" fill="white"/>
</svg>
