<svg width="18" height="18" viewBox="0 0 18 18" fill="none" xmlns="http://www.w3.org/2000/svg">
<g opacity="0.8">
<path d="M11.6625 9.75C12.225 9.75 12.72 9.4425 12.975 8.9775L15.66 4.11C15.9375 3.615 15.5775 3 15.0075 3H3.9075L3.2025 1.5H0.75V3H2.25L4.95 8.6925L3.9375 10.5225C3.39 11.5275 4.11 12.75 5.25 12.75H14.25V11.25H5.25L6.075 9.75H11.6625ZM4.62 4.5H13.7325L11.6625 8.25H6.3975L4.62 4.5ZM5.25 13.5C4.425 13.5 3.7575 14.175 3.7575 15C3.7575 15.825 4.425 16.5 5.25 16.5C6.075 16.5 6.75 15.825 6.75 15C6.75 14.175 6.075 13.5 5.25 13.5ZM12.75 13.5C11.925 13.5 11.2575 14.175 11.2575 15C11.2575 15.825 11.925 16.5 12.75 16.5C13.575 16.5 14.25 15.825 14.25 15C14.25 14.175 13.575 13.5 12.75 13.5Z" fill="#333333"/>
</g>
</svg>
