<svg width="40" height="40" viewBox="0 0 40 40" fill="none" xmlns="http://www.w3.org/2000/svg">
<path fill-rule="evenodd" clip-rule="evenodd" d="M11.4867 24.5304H14.6623C14.7592 24.5304 14.8345 24.5643 14.9099 24.6321L19.8186 29.2438C20.3999 29.7863 20.8521 30.0463 21.4334 30.0463C22.273 30.0463 22.8974 29.3907 22.8974 28.5204V10.5824C22.8974 9.70079 22.273 9 21.4226 9C20.8413 9 20.443 9.27127 19.8186 9.84773L14.9099 14.4368C14.8345 14.5046 14.7592 14.5385 14.6623 14.5385H11.4867C9.83966 14.5385 9 15.4314 9 17.2738V21.7951C9 23.6375 9.83966 24.5304 11.4867 24.5304ZM11.6912 22.4393C11.3144 22.4393 11.1314 22.2472 11.1314 21.8516V17.2173C11.1314 16.8217 11.3144 16.6296 11.6912 16.6296H15.179C15.4466 16.6296 15.643 16.588 15.8563 16.4125L20.4215 12.0631C20.4753 12.0179 20.5399 11.9727 20.6045 11.9727C20.6906 11.9727 20.7659 12.0405 20.7659 12.1422V26.8927C20.7659 27.0058 20.7014 27.0736 20.6045 27.0736C20.5506 27.0736 20.4861 27.0397 20.4322 26.9832L15.9648 22.7445C15.7065 22.4958 15.4912 22.4393 15.179 22.4393H11.6912ZM27.1495 22.9706C26.7297 23.6488 26.8265 24.3269 27.3755 24.7112C27.8492 25.039 28.4736 24.926 28.8288 24.4174C29.7223 23.1514 30.2497 21.3542 30.2497 19.5118C30.2497 17.6581 29.7223 15.8836 28.8288 14.595C28.4736 14.0864 27.8492 13.9733 27.3755 14.3011C26.8265 14.6967 26.7189 15.3749 27.1602 16.0531C27.7523 16.9347 28.1075 18.2233 28.1075 19.5118C28.1075 20.8117 27.7415 22.0889 27.1495 22.9706Z" fill="white"/>
</svg>
