<svg width="16" height="16" viewBox="0 0 16 16" fill="none" xmlns="http://www.w3.org/2000/svg">
<path d="M11.75 3.9H10.5C10.5 2.574 9.38125 1.5 8 1.5C6.61875 1.5 5.5 2.574 5.5 3.9H4.25C3.5625 3.9 3 4.44 3 5.1V12.3C3 12.96 3.5625 13.5 4.25 13.5H11.75C12.4375 13.5 13 12.96 13 12.3V5.1C13 4.44 12.4375 3.9 11.75 3.9ZM6.75 6.3C6.75 6.63 6.46875 6.9 6.125 6.9C5.78125 6.9 5.5 6.63 5.5 6.3V5.1H6.75V6.3ZM8 2.7C8.6875 2.7 9.25 3.24 9.25 3.9H6.75C6.75 3.24 7.3125 2.7 8 2.7ZM10.5 6.3C10.5 6.63 10.2188 6.9 9.875 6.9C9.53125 6.9 9.25 6.63 9.25 6.3V5.1H10.5V6.3Z" fill="white"/>
</svg>
