<svg width="40" height="40" viewBox="0 0 40 40" fill="none" xmlns="http://www.w3.org/2000/svg">
<path fill-rule="evenodd" clip-rule="evenodd" d="M20 18.3838L26.049 12.3347C26.4953 11.8884 27.219 11.8884 27.6653 12.3347C28.1116 12.781 28.1116 13.5047 27.6653 13.951L21.6162 20L27.6653 26.049C28.1116 26.4953 28.1116 27.219 27.6653 27.6653C27.219 28.1116 26.4953 28.1116 26.049 27.6653L20 21.6162L13.951 27.6653C13.5047 28.1116 12.781 28.1116 12.3347 27.6653C11.8884 27.219 11.8884 26.4953 12.3347 26.049L18.3838 20L12.3347 13.951C11.8884 13.5047 11.8884 12.781 12.3347 12.3347C12.781 11.8884 13.5047 11.8884 13.951 12.3347L20 18.3838Z" fill="white"/>
</svg>
