<svg width="441" height="421" viewBox="0 0 441 421" fill="none" xmlns="http://www.w3.org/2000/svg">
<path d="M274.61 239.183C269.566 239.183 265.794 242.897 263.992 245.112C259.967 250.063 257.656 257.171 257.656 264.611C257.656 272.051 259.967 279.159 263.992 284.111C265.794 286.325 269.566 290.039 274.61 290.039C279.654 290.039 283.426 286.325 285.228 284.111C289.253 279.159 291.564 272.051 291.564 264.611C291.564 257.171 289.253 250.063 285.228 245.112C283.428 242.896 279.654 239.183 274.61 239.183Z" fill="#495057"/>
<path d="M166.384 181.81C171.428 181.81 175.2 178.096 177.002 175.882C181.028 170.93 183.338 163.823 183.338 156.382C183.338 148.941 181.028 141.835 177.002 136.883C175.2 134.669 171.428 130.955 166.384 130.955C161.34 130.955 157.568 134.669 155.766 136.883C151.74 141.835 149.43 148.941 149.43 156.382C149.43 163.823 151.74 170.93 155.766 175.882C157.567 178.097 161.34 181.81 166.384 181.81Z" fill="#495057"/>
<path d="M435.289 199.037L381.305 158.243L401.004 93.492C402.316 89.182 401.529 84.508 398.881 80.864C396.234 77.221 392.027 75.031 387.525 74.948L319.853 73.713L297.788 9.716C296.319 5.454 292.933 2.129 288.645 0.737C284.362 -0.656 279.666 0.0449994 275.97 2.629L220.495 41.443L165.02 2.627C161.327 0.0439997 156.633 -0.658 152.346 0.735C148.057 2.128 144.674 5.453 143.203 9.714L121.139 73.71L53.467 74.946C48.965 75.029 44.76 77.218 42.112 80.862C39.464 84.506 38.676 89.181 39.987 93.49L59.688 158.24L5.705 199.037C2.111 201.751 0 205.995 0 210.497C0 215 2.111 219.243 5.705 221.958L59.689 262.752L39.99 327.502C38.679 331.812 39.467 336.486 42.115 340.13C44.763 343.773 48.969 345.963 53.47 346.046L121.142 347.282L143.206 411.278C144.675 415.54 148.06 418.865 152.347 420.257C156.632 421.651 161.327 420.949 165.021 418.364L220.496 379.55L275.973 418.365C278.416 420.074 281.297 420.96 284.209 420.96C285.697 420.96 287.195 420.73 288.647 420.257C292.933 418.864 296.319 415.539 297.788 411.278L319.851 347.282L387.526 346.045C392.028 345.962 396.233 343.773 398.88 340.129C401.528 336.485 402.317 331.811 401.005 327.501L381.304 262.752L435.288 221.957C438.882 219.242 440.993 214.999 440.993 210.496C440.993 205.993 438.883 201.75 435.289 199.037ZM166.384 111.01C186.764 111.01 203.285 131.324 203.285 156.384C203.285 181.445 186.764 201.759 166.384 201.759C146.004 201.759 129.483 181.445 129.483 156.384C129.482 131.324 146.004 111.01 166.384 111.01ZM164.038 310.178C161.731 313.387 157.991 315.303 154.033 315.303C151.452 315.303 148.974 314.503 146.87 312.991C141.361 309.034 140.099 301.333 144.057 295.824L276.957 110.814C279.263 107.605 283.003 105.689 286.962 105.689C289.542 105.689 292.02 106.489 294.124 108.001C299.633 111.958 300.895 119.659 296.937 125.168L164.038 310.178ZM274.61 309.983C254.23 309.983 237.709 289.67 237.709 264.608C237.709 239.549 254.23 219.235 274.61 219.235C294.99 219.235 311.51 239.549 311.51 264.608C311.512 289.669 294.99 309.983 274.61 309.983Z" fill="#495057"/>
</svg>
