<svg width="40" height="40" viewBox="0 0 40 40" fill="none" xmlns="http://www.w3.org/2000/svg">
<path d="M12.7227 24.3516H17.6133V25.4766C17.6133 27.0234 18.4102 27.8047 19.9727 27.8047H27.2773C28.8398 27.8047 29.6367 27.0234 29.6367 25.4766V20.6641C29.6367 19.125 28.8398 18.3359 27.2773 18.3359H25.8789V14.5234C25.8789 12.9844 25.082 12.1953 23.5195 12.1953H12.7227C11.1523 12.1953 10.3633 12.9844 10.3633 14.5234V22.0234C10.3633 23.5703 11.1523 24.3516 12.7227 24.3516ZM12.7695 23.0703C12.0508 23.0703 11.6523 22.6875 11.6523 21.9375V14.6094C11.6523 13.8672 12.0508 13.4844 12.7695 13.4844H23.4727C24.1836 13.4844 24.5898 13.8672 24.5898 14.6094V18.3359H19.9727C18.4102 18.3359 17.6133 19.1172 17.6133 20.6641V23.0703H12.7695ZM13.2461 14.4297C12.9492 14.4297 12.7227 14.6406 12.7227 14.9141C12.7227 15.0703 12.7773 15.1875 12.8945 15.3047L14.3789 16.7891L13.6836 17.4844C13.3242 17.8359 13.543 18.3203 14.0664 18.3984L16.5117 18.7656C16.8555 18.8125 17.1211 18.5469 17.0742 18.2031L16.7148 15.75C16.6367 15.2188 16.1445 15.0078 15.7773 15.3828L15.0977 16.0703L13.6133 14.5859C13.5039 14.4766 13.3867 14.4297 13.2461 14.4297Z" fill="white"/>
</svg>
