<svg width="36" height="36" viewBox="0 0 36 36" fill="none" xmlns="http://www.w3.org/2000/svg">
<circle cx="18" cy="18" r="18" transform="rotate(180 18 18)" fill="#404040" fill-opacity="0.5"/>
<path fill-rule="evenodd" clip-rule="evenodd" d="M20.278 18L12.6747 25.6032C12.1138 26.1642 12.1138 27.0737 12.6747 27.6347C13.2357 28.1957 14.1453 28.1957 14.7063 27.6347L23.3252 19.0157C23.8862 18.4547 23.8862 17.5452 23.3252 16.9842L14.7063 8.36522C14.1453 7.80424 13.2357 7.80424 12.6747 8.36522C12.1138 8.92621 12.1138 9.83575 12.6747 10.3967L20.278 18Z" fill="white"/>
<mask id="mask0" mask-type="alpha" maskUnits="userSpaceOnUse" x="12" y="7" width="12" height="22">
<path fill-rule="evenodd" clip-rule="evenodd" d="M20.278 18L12.6747 25.6032C12.1138 26.1642 12.1138 27.0737 12.6747 27.6347C13.2357 28.1957 14.1453 28.1957 14.7063 27.6347L23.3252 19.0157C23.8862 18.4547 23.8862 17.5452 23.3252 16.9842L14.7063 8.36522C14.1453 7.80424 13.2357 7.80424 12.6747 8.36522C12.1138 8.92621 12.1138 9.83575 12.6747 10.3967L20.278 18Z" fill="white"/>
</mask>
<g mask="url(#mask0)">
</g>
</svg>
