<svg width="18" height="18" viewBox="0 0 18 18" fill="none" xmlns="http://www.w3.org/2000/svg">
<circle cx="9.00089" cy="8.99998" r="6.99998" fill="#DE1B69"/>
<circle cx="8.99999" cy="2.99999" r="2.99999" fill="#DE1B69"/>
<circle cx="8.99999" cy="15" r="2.99999" fill="#DE1B69"/>
<circle cx="15.0003" cy="8.99999" r="2.99999" transform="rotate(90 15.0003 8.99999)" fill="#DE1B69"/>
<circle cx="3.00001" cy="8.99999" r="2.99999" transform="rotate(90 3.00001 8.99999)" fill="#DE1B69"/>
<circle cx="13.2429" cy="13.2427" r="2.99999" transform="rotate(135 13.2429 13.2427)" fill="#DE1B69"/>
<circle cx="4.75762" cy="4.75732" r="2.99999" transform="rotate(135 4.75762 4.75732)" fill="#DE1B69"/>
<circle cx="4.75818" cy="13.2422" r="2.99999" transform="rotate(-135 4.75818 13.2422)" fill="#DE1B69"/>
<circle cx="13.2435" cy="4.75737" r="2.99999" transform="rotate(-135 13.2435 4.75737)" fill="#DE1B69"/>
<rect x="9.74921" y="10.25" width="1.99999" height="1.99999" rx="0.999997" fill="white"/>
<rect x="5.75012" y="5.75049" width="1.99999" height="1.99999" rx="0.999997" fill="white"/>
<path d="M7.62512 11.6255L11.6251 7.62548C11.9703 7.2803 11.9703 6.72066 11.6251 6.37549C11.2799 6.03031 10.7203 6.03031 10.3751 6.37549L6.37512 10.3755C6.02994 10.7206 6.02994 11.2803 6.37512 11.6255C6.7203 11.9706 7.27994 11.9706 7.62512 11.6255Z" fill="white"/>
</svg>
