<svg width="36" height="36" viewBox="0 0 36 36" fill="none" xmlns="http://www.w3.org/2000/svg">
<circle cx="18" cy="18" r="18" fill="#404040" fill-opacity="0.5"/>
<path fill-rule="evenodd" clip-rule="evenodd" d="M15.722 18L23.3253 10.3968C23.8862 9.83584 23.8862 8.92631 23.3253 8.36532C22.7643 7.80433 21.8547 7.80433 21.2937 8.36532L12.6748 16.9843C12.1138 17.5453 12.1138 18.4548 12.6748 19.0158L21.2937 27.6348C21.8547 28.1958 22.7643 28.1958 23.3253 27.6348C23.8862 27.0738 23.8862 26.1643 23.3253 25.6033L15.722 18Z" fill="white"/>
<mask id="mask0" mask-type="alpha" maskUnits="userSpaceOnUse" x="12" y="7" width="12" height="22">
<path fill-rule="evenodd" clip-rule="evenodd" d="M15.722 18L23.3253 10.3968C23.8862 9.83584 23.8862 8.92631 23.3253 8.36532C22.7643 7.80433 21.8547 7.80433 21.2937 8.36532L12.6748 16.9843C12.1138 17.5453 12.1138 18.4548 12.6748 19.0158L21.2937 27.6348C21.8547 28.1958 22.7643 28.1958 23.3253 27.6348C23.8862 27.0738 23.8862 26.1643 23.3253 25.6033L15.722 18Z" fill="white"/>
</mask>
<g mask="url(#mask0)">
</g>
</svg>
