<svg width="874" height="56" viewBox="0 0 874 56" fill="none" xmlns="http://www.w3.org/2000/svg">
<rect width="874" height="56" rx="28" fill="#F9F9F9"/>
<rect x="8" y="8" width="40" height="40" rx="20" fill="#C4C4C4"/>
<g filter="url(#filter0_d)">
<path d="M26.0133 27.7566C25.7102 24.7292 23.1116 24.225 21.8502 24.3513C19.7007 24.2607 18.0207 25.8048 17.9075 28.4917C17.817 30.6411 20.302 31.2841 21.5559 31.337C21.4472 33.9163 22.1064 35.3079 22.4495 35.6812C21.3748 35.6359 20.2548 36.6654 20.7469 37.7628C21.275 38.9406 25.0458 37.9439 27.1726 38.5718C26.4637 38.3625 23.9982 37.2537 24.1069 34.6744C24.2156 32.095 26.2131 31.5332 27.467 31.586C25.2881 32.1919 24.6986 33.4073 24.6443 34.697C24.5764 36.3091 26.6353 38.5492 29.3221 38.6624C32.009 38.7755 36.0653 37.3062 36.2238 33.5446C36.3822 29.783 33.0444 26.9761 29.8202 26.8402C27.2408 26.7316 26.2075 27.4059 26.0133 27.7566Z" fill="#3C3C3C"/>
<path d="M24.7764 17.4763C22.5726 18.6754 22.244 22.2145 22.3552 23.8342L22.8926 23.8568C24.4388 21.2303 26.9802 16.2772 24.7764 17.4763Z" fill="#3C3C3C"/>
<path d="M28.4927 18.7093C26.3432 18.6187 24.1918 22.8346 23.3847 24.9539L23.9221 24.9766C26.6995 22.9403 31.1796 18.8225 28.4927 18.7093Z" fill="#3C3C3C"/>
<path d="M37.3001 33.5446C37.3001 32.7748 36.7611 32.4915 36.2238 32.4689L36.1332 34.6183C36.6706 34.641 37.3001 34.6202 37.3001 33.5446Z" fill="#3C3C3C"/>
<circle cx="21.7597" cy="26.5007" r="0.537845" transform="rotate(2.41242 21.7597 26.5007)" fill="#C4C4C4"/>
</g>
<path d="M69.68 23.632C69.84 23.728 69.92 23.8613 69.92 24.032C69.92 24.128 69.8827 24.2347 69.808 24.352C69.712 24.4693 69.5893 24.528 69.44 24.528C69.3547 24.528 69.2693 24.5013 69.184 24.448C68.3307 23.8827 67.3973 23.6 66.384 23.6C65.52 23.6 64.736 23.8027 64.032 24.208C63.3387 24.6133 62.7893 25.184 62.384 25.92C61.9893 26.6453 61.792 27.472 61.792 28.4C61.792 29.3493 61.9947 30.192 62.4 30.928C62.8053 31.6533 63.3547 32.2187 64.048 32.624C64.752 33.0187 65.5307 33.216 66.384 33.216C67.3973 33.216 68.3253 32.9387 69.168 32.384C69.2533 32.3307 69.344 32.304 69.44 32.304C69.5893 32.304 69.712 32.368 69.808 32.496C69.8827 32.5813 69.92 32.6827 69.92 32.8C69.92 32.9707 69.8453 33.0987 69.696 33.184C69.28 33.4613 68.768 33.696 68.16 33.888C67.552 34.0693 66.96 34.16 66.384 34.16C65.3707 34.16 64.432 33.92 63.568 33.44C62.7147 32.9493 62.032 32.2667 61.52 31.392C61.0187 30.5173 60.768 29.52 60.768 28.4C60.768 27.3227 61.0187 26.3467 61.52 25.472C62.0213 24.5867 62.6987 23.8987 63.552 23.408C64.4053 22.9067 65.3493 22.656 66.384 22.656C66.9813 22.656 67.5627 22.7413 68.128 22.912C68.704 23.0827 69.2213 23.3227 69.68 23.632ZM75.5411 25.632C75.7545 25.632 75.9465 25.6747 76.1171 25.76C76.2878 25.8453 76.3731 25.9733 76.3731 26.144C76.3731 26.2933 76.3305 26.416 76.2451 26.512C76.1598 26.5973 76.0585 26.64 75.9411 26.64C75.8878 26.64 75.7811 26.6133 75.6211 26.56C75.4718 26.5067 75.3278 26.48 75.1891 26.48C74.7945 26.48 74.3998 26.6347 74.0051 26.944C73.6211 27.2427 73.3011 27.632 73.0451 28.112C72.7998 28.592 72.6771 29.0773 72.6771 29.568V33.52C72.6771 33.6587 72.6291 33.776 72.5331 33.872C72.4478 33.9573 72.3358 34 72.1971 34C72.0585 34 71.9411 33.9573 71.8451 33.872C71.7598 33.776 71.7171 33.6587 71.7171 33.52V26.352C71.7171 26.2133 71.7598 26.1013 71.8451 26.016C71.9411 25.92 72.0585 25.872 72.1971 25.872C72.3358 25.872 72.4478 25.92 72.5331 26.016C72.6291 26.1013 72.6771 26.2133 72.6771 26.352V27.76C72.9225 27.152 73.2905 26.6507 73.7811 26.256C74.2825 25.8507 74.8691 25.6427 75.5411 25.632ZM83.9854 25.872C84.124 25.872 84.236 25.92 84.3214 26.016C84.4174 26.1013 84.4654 26.2133 84.4654 26.352V30.864C84.4654 31.9093 84.172 32.7147 83.5854 33.28C82.9987 33.8347 82.188 34.112 81.1534 34.112C80.1294 34.112 79.324 33.8347 78.7374 33.28C78.1614 32.7147 77.8734 31.9093 77.8734 30.864V26.352C77.8734 26.2133 77.916 26.1013 78.0014 26.016C78.0974 25.92 78.2147 25.872 78.3534 25.872C78.492 25.872 78.604 25.92 78.6894 26.016C78.7854 26.1013 78.8334 26.2133 78.8334 26.352V30.864C78.8334 31.632 79.036 32.2187 79.4414 32.624C79.8467 33.0187 80.4174 33.216 81.1534 33.216C81.9 33.216 82.476 33.0187 82.8814 32.624C83.2974 32.2187 83.5054 31.632 83.5054 30.864V26.352C83.5054 26.2133 83.548 26.1013 83.6334 26.016C83.7294 25.92 83.8467 25.872 83.9854 25.872ZM93.8948 29.44C93.8948 29.568 93.8468 29.68 93.7508 29.776C93.6548 29.8613 93.5428 29.904 93.4148 29.904H87.3668C87.3668 30.544 87.4948 31.12 87.7508 31.632C88.0174 32.1333 88.3908 32.5333 88.8708 32.832C89.3614 33.12 89.9374 33.264 90.5988 33.264C91.1108 33.264 91.5694 33.1573 91.9748 32.944C92.3801 32.7307 92.7054 32.4587 92.9508 32.128C93.0681 32.032 93.1801 31.984 93.2868 31.984C93.3934 31.984 93.4894 32.0267 93.5748 32.112C93.6601 32.1973 93.7028 32.2933 93.7028 32.4C93.7028 32.5173 93.6494 32.6293 93.5428 32.736C93.2014 33.152 92.7694 33.4933 92.2468 33.76C91.7348 34.0267 91.1908 34.16 90.6148 34.16C89.7934 34.16 89.0681 33.984 88.4388 33.632C87.8094 33.28 87.3188 32.7893 86.9668 32.16C86.6148 31.52 86.4388 30.784 86.4388 29.952C86.4388 29.0773 86.6094 28.3147 86.9508 27.664C87.3028 27.0027 87.7668 26.5013 88.3428 26.16C88.9188 25.808 89.5321 25.632 90.1828 25.632C90.8228 25.632 91.4201 25.7813 91.9748 26.08C92.5401 26.3787 92.9988 26.816 93.3508 27.392C93.7028 27.968 93.8841 28.6507 93.8948 29.44ZM90.1828 26.56C89.5641 26.56 88.9881 26.7733 88.4548 27.2C87.9321 27.6267 87.5961 28.24 87.4468 29.04H92.9028V28.912C92.8494 28.432 92.6894 28.016 92.4228 27.664C92.1561 27.3013 91.8201 27.0293 91.4148 26.848C91.0201 26.656 90.6094 26.56 90.1828 26.56ZM96.9294 33.52C96.9294 33.6587 96.8814 33.776 96.7854 33.872C96.7 33.9573 96.588 34 96.4494 34C96.3107 34 96.1934 33.9573 96.0974 33.872C96.012 33.776 95.9694 33.6587 95.9694 33.52V22.64C95.9694 22.5013 96.012 22.3893 96.0974 22.304C96.1934 22.208 96.3107 22.16 96.4494 22.16C96.588 22.16 96.7 22.208 96.7854 22.304C96.8814 22.3893 96.9294 22.5013 96.9294 22.64V33.52ZM101.114 26.752V32.112C101.114 32.5173 101.189 32.7947 101.338 32.944C101.487 33.0827 101.685 33.152 101.93 33.152C101.994 33.152 102.074 33.1413 102.17 33.12C102.266 33.088 102.341 33.072 102.394 33.072C102.49 33.072 102.57 33.1147 102.634 33.2C102.709 33.2747 102.746 33.3653 102.746 33.472C102.746 33.6213 102.661 33.7493 102.49 33.856C102.319 33.952 102.117 34 101.882 34C101.594 34 101.338 33.9733 101.114 33.92C100.89 33.8667 100.671 33.7067 100.458 33.44C100.255 33.1733 100.154 32.7467 100.154 32.16V26.752H98.986C98.858 26.752 98.746 26.7093 98.65 26.624C98.5647 26.5387 98.522 26.432 98.522 26.304C98.522 26.176 98.5647 26.0693 98.65 25.984C98.746 25.8987 98.858 25.856 98.986 25.856H100.154V24.08C100.154 23.9413 100.197 23.8293 100.282 23.744C100.378 23.648 100.495 23.6 100.634 23.6C100.773 23.6 100.885 23.648 100.97 23.744C101.066 23.8293 101.114 23.9413 101.114 24.08V25.856H102.714C102.831 25.856 102.933 25.904 103.018 26C103.114 26.096 103.162 26.2027 103.162 26.32C103.162 26.448 103.119 26.5547 103.034 26.64C102.949 26.7147 102.842 26.752 102.714 26.752H101.114ZM111.032 25.68C111.171 25.68 111.283 25.728 111.368 25.824C111.464 25.9093 111.512 26.0213 111.512 26.16V33.216C111.512 34.0587 111.347 34.7787 111.016 35.376C110.685 35.9733 110.227 36.4267 109.64 36.736C109.053 37.0453 108.392 37.2 107.656 37.2C107.208 37.2 106.787 37.152 106.392 37.056C106.008 36.96 105.688 36.832 105.432 36.672C105.208 36.5333 105.096 36.3787 105.096 36.208C105.096 36.1867 105.107 36.1333 105.128 36.048C105.16 35.9413 105.213 35.8613 105.288 35.808C105.363 35.7547 105.443 35.728 105.528 35.728C105.592 35.728 105.656 35.744 105.72 35.776C106.403 36.1493 107.053 36.336 107.672 36.336C108.557 36.336 109.256 36.0587 109.768 35.504C110.291 34.9493 110.552 34.192 110.552 33.232V32.672C110.285 33.12 109.901 33.4827 109.4 33.76C108.899 34.0267 108.355 34.16 107.768 34.16C106.84 34.16 106.136 33.8827 105.656 33.328C105.176 32.7733 104.936 32.0213 104.936 31.072V26.16C104.936 26.0213 104.979 25.9093 105.064 25.824C105.16 25.728 105.277 25.68 105.416 25.68C105.555 25.68 105.667 25.728 105.752 25.824C105.848 25.9093 105.896 26.0213 105.896 26.16V30.928C105.896 31.696 106.061 32.2773 106.392 32.672C106.733 33.0667 107.261 33.264 107.976 33.264C108.413 33.264 108.829 33.1573 109.224 32.944C109.629 32.72 109.949 32.432 110.184 32.08C110.429 31.7173 110.552 31.3333 110.552 30.928V26.16C110.552 26.0213 110.595 25.9093 110.68 25.824C110.776 25.728 110.893 25.68 111.032 25.68ZM124.949 22.8C125.087 22.8 125.199 22.848 125.285 22.944C125.381 23.0293 125.429 23.1413 125.429 23.28C125.429 23.408 125.381 23.52 125.285 23.616C125.199 23.7013 125.087 23.744 124.949 23.744H119.621V27.76H124.229C124.367 27.76 124.479 27.8027 124.565 27.888C124.661 27.9733 124.709 28.0853 124.709 28.224C124.709 28.3627 124.661 28.4747 124.565 28.56C124.479 28.6453 124.367 28.688 124.229 28.688H119.621V33.52C119.621 33.6587 119.573 33.776 119.477 33.872C119.391 33.9573 119.279 34 119.141 34C118.991 34 118.869 33.9573 118.773 33.872C118.687 33.776 118.645 33.6587 118.645 33.52V23.28C118.645 23.1413 118.687 23.0293 118.773 22.944C118.869 22.848 118.986 22.8 119.125 22.8H124.949ZM131.151 25.632C131.364 25.632 131.556 25.6747 131.727 25.76C131.897 25.8453 131.983 25.9733 131.983 26.144C131.983 26.2933 131.94 26.416 131.855 26.512C131.769 26.5973 131.668 26.64 131.551 26.64C131.497 26.64 131.391 26.6133 131.231 26.56C131.081 26.5067 130.937 26.48 130.799 26.48C130.404 26.48 130.009 26.6347 129.615 26.944C129.231 27.2427 128.911 27.632 128.655 28.112C128.409 28.592 128.287 29.0773 128.287 29.568V33.52C128.287 33.6587 128.239 33.776 128.143 33.872C128.057 33.9573 127.945 34 127.807 34C127.668 34 127.551 33.9573 127.455 33.872C127.369 33.776 127.327 33.6587 127.327 33.52V26.352C127.327 26.2133 127.369 26.1013 127.455 26.016C127.551 25.92 127.668 25.872 127.807 25.872C127.945 25.872 128.057 25.92 128.143 26.016C128.239 26.1013 128.287 26.2133 128.287 26.352V27.76C128.532 27.152 128.9 26.6507 129.391 26.256C129.892 25.8507 130.479 25.6427 131.151 25.632ZM140.035 29.44C140.035 29.568 139.987 29.68 139.891 29.776C139.795 29.8613 139.683 29.904 139.555 29.904H133.507C133.507 30.544 133.635 31.12 133.891 31.632C134.158 32.1333 134.531 32.5333 135.011 32.832C135.502 33.12 136.078 33.264 136.739 33.264C137.251 33.264 137.71 33.1573 138.115 32.944C138.521 32.7307 138.846 32.4587 139.091 32.128C139.209 32.032 139.321 31.984 139.427 31.984C139.534 31.984 139.63 32.0267 139.715 32.112C139.801 32.1973 139.843 32.2933 139.843 32.4C139.843 32.5173 139.79 32.6293 139.683 32.736C139.342 33.152 138.91 33.4933 138.387 33.76C137.875 34.0267 137.331 34.16 136.755 34.16C135.934 34.16 135.209 33.984 134.579 33.632C133.95 33.28 133.459 32.7893 133.107 32.16C132.755 31.52 132.579 30.784 132.579 29.952C132.579 29.0773 132.75 28.3147 133.091 27.664C133.443 27.0027 133.907 26.5013 134.483 26.16C135.059 25.808 135.673 25.632 136.323 25.632C136.963 25.632 137.561 25.7813 138.115 26.08C138.681 26.3787 139.139 26.816 139.491 27.392C139.843 27.968 140.025 28.6507 140.035 29.44ZM136.323 26.56C135.705 26.56 135.129 26.7733 134.595 27.2C134.073 27.6267 133.737 28.24 133.587 29.04H139.043V28.912C138.99 28.432 138.83 28.016 138.563 27.664C138.297 27.3013 137.961 27.0293 137.555 26.848C137.161 26.656 136.75 26.56 136.323 26.56ZM148.926 29.44C148.926 29.568 148.878 29.68 148.782 29.776C148.686 29.8613 148.574 29.904 148.446 29.904H142.398C142.398 30.544 142.526 31.12 142.782 31.632C143.049 32.1333 143.422 32.5333 143.902 32.832C144.393 33.12 144.969 33.264 145.63 33.264C146.142 33.264 146.601 33.1573 147.006 32.944C147.411 32.7307 147.737 32.4587 147.982 32.128C148.099 32.032 148.211 31.984 148.318 31.984C148.425 31.984 148.521 32.0267 148.606 32.112C148.691 32.1973 148.734 32.2933 148.734 32.4C148.734 32.5173 148.681 32.6293 148.574 32.736C148.233 33.152 147.801 33.4933 147.278 33.76C146.766 34.0267 146.222 34.16 145.646 34.16C144.825 34.16 144.099 33.984 143.47 33.632C142.841 33.28 142.35 32.7893 141.998 32.16C141.646 31.52 141.47 30.784 141.47 29.952C141.47 29.0773 141.641 28.3147 141.982 27.664C142.334 27.0027 142.798 26.5013 143.374 26.16C143.95 25.808 144.563 25.632 145.214 25.632C145.854 25.632 146.451 25.7813 147.006 26.08C147.571 26.3787 148.03 26.816 148.382 27.392C148.734 27.968 148.915 28.6507 148.926 29.44ZM145.214 26.56C144.595 26.56 144.019 26.7733 143.486 27.2C142.963 27.6267 142.627 28.24 142.478 29.04H147.934V28.912C147.881 28.432 147.721 28.016 147.454 27.664C147.187 27.3013 146.851 27.0293 146.446 26.848C146.051 26.656 145.641 26.56 145.214 26.56Z" fill="black"/>
<rect x="222" y="8" width="40" height="40" rx="20" fill="#C4C4C4"/>
<g filter="url(#filter1_d)">
<path d="M232.5 29L238.5 27L244.5 29V37L238.5 39L232.5 37V29Z" fill="#3C3C3C"/>
<path d="M232.5 29L238.5 31M238.5 31V39M238.5 31L244.5 29" stroke="#C4C4C4" stroke-width="0.3"/>
<path d="M238 17L233.5 21L238 25V22.5H244C247 22.5 249.5 24.5 249.5 27.5C249.5 29.9 247.833 31.8333 247 32.5C248.333 32.5 251.5 30.5 251.5 26.5C251.5 22.5 249 19.5 244 19.5H238V17Z" fill="#3C3C3C"/>
</g>
<path d="M281.365 33.115C281.495 33.115 281.6 33.16 281.68 33.25C281.77 33.34 281.815 33.445 281.815 33.565C281.815 33.695 281.77 33.8 281.68 33.88C281.6 33.96 281.495 34 281.365 34H275.86C275.73 34 275.62 33.96 275.53 33.88C275.45 33.79 275.41 33.68 275.41 33.55V23.95C275.41 23.82 275.45 23.715 275.53 23.635C275.62 23.545 275.73 23.5 275.86 23.5H281.365C281.495 23.5 281.6 23.545 281.68 23.635C281.77 23.715 281.815 23.82 281.815 23.95C281.815 24.08 281.77 24.185 281.68 24.265C281.6 24.345 281.495 24.385 281.365 24.385H276.355V28.15H280.69C280.82 28.15 280.925 28.195 281.005 28.285C281.095 28.365 281.14 28.47 281.14 28.6C281.14 28.73 281.095 28.835 281.005 28.915C280.925 28.995 280.82 29.035 280.69 29.035H276.355V33.115H281.365ZM289.935 26.335C290.065 26.335 290.17 26.38 290.25 26.47C290.34 26.56 290.385 26.67 290.385 26.8V33.55C290.385 33.68 290.34 33.79 290.25 33.88C290.17 33.96 290.065 34 289.935 34C289.805 34 289.695 33.96 289.605 33.88C289.525 33.79 289.485 33.68 289.485 33.55V32.545C289.235 32.995 288.86 33.375 288.36 33.685C287.86 33.995 287.315 34.15 286.725 34.15C286.055 34.15 285.45 33.975 284.91 33.625C284.38 33.275 283.96 32.795 283.65 32.185C283.35 31.575 283.2 30.89 283.2 30.13C283.2 29.37 283.355 28.69 283.665 28.09C283.975 27.48 284.395 27.005 284.925 26.665C285.465 26.325 286.06 26.155 286.71 26.155C287.31 26.155 287.86 26.3 288.36 26.59C288.86 26.88 289.235 27.26 289.485 27.73V26.8C289.485 26.67 289.525 26.56 289.605 26.47C289.695 26.38 289.805 26.335 289.935 26.335ZM286.815 33.31C287.335 33.31 287.8 33.175 288.21 32.905C288.63 32.625 288.955 32.245 289.185 31.765C289.425 31.275 289.545 30.73 289.545 30.13C289.545 29.55 289.425 29.02 289.185 28.54C288.955 28.06 288.63 27.685 288.21 27.415C287.8 27.135 287.335 26.995 286.815 26.995C286.295 26.995 285.825 27.13 285.405 27.4C284.995 27.67 284.67 28.045 284.43 28.525C284.2 28.995 284.085 29.53 284.085 30.13C284.085 30.73 284.2 31.275 284.43 31.765C284.66 32.245 284.98 32.625 285.39 32.905C285.81 33.175 286.285 33.31 286.815 33.31ZM292.299 32.785C292.219 32.655 292.179 32.545 292.179 32.455C292.179 32.325 292.244 32.225 292.374 32.155C292.434 32.095 292.514 32.065 292.614 32.065C292.734 32.065 292.844 32.115 292.944 32.215C293.534 32.995 294.319 33.385 295.299 33.385C295.779 33.385 296.194 33.275 296.544 33.055C296.904 32.825 297.084 32.495 297.084 32.065C297.084 31.645 296.919 31.33 296.589 31.12C296.259 30.91 295.799 30.73 295.209 30.58C294.379 30.37 293.729 30.1 293.259 29.77C292.789 29.43 292.554 28.935 292.554 28.285C292.554 27.875 292.669 27.51 292.899 27.19C293.129 26.86 293.439 26.605 293.829 26.425C294.229 26.245 294.679 26.155 295.179 26.155C295.609 26.155 296.039 26.24 296.469 26.41C296.909 26.57 297.284 26.83 297.594 27.19C297.684 27.26 297.729 27.36 297.729 27.49C297.729 27.61 297.679 27.715 297.579 27.805C297.509 27.865 297.419 27.895 297.309 27.895C297.209 27.895 297.119 27.855 297.039 27.775C296.799 27.505 296.514 27.3 296.184 27.16C295.854 27.02 295.499 26.95 295.119 26.95C294.649 26.95 294.244 27.06 293.904 27.28C293.574 27.5 293.409 27.83 293.409 28.27C293.429 28.67 293.609 28.975 293.949 29.185C294.299 29.395 294.809 29.585 295.479 29.755C295.999 29.885 296.429 30.03 296.769 30.19C297.109 30.35 297.384 30.575 297.594 30.865C297.814 31.155 297.924 31.54 297.924 32.02C297.924 32.67 297.664 33.19 297.144 33.58C296.624 33.96 295.979 34.15 295.209 34.15C293.989 34.15 293.019 33.695 292.299 32.785ZM305.48 26.2C305.61 26.2 305.715 26.245 305.795 26.335C305.885 26.415 305.93 26.52 305.93 26.65V33.265C305.93 34.055 305.775 34.73 305.465 35.29C305.155 35.85 304.725 36.275 304.175 36.565C303.625 36.855 303.005 37 302.315 37C301.895 37 301.5 36.955 301.13 36.865C300.77 36.775 300.47 36.655 300.23 36.505C300.02 36.375 299.915 36.23 299.915 36.07C299.915 36.05 299.925 36 299.945 35.92C299.975 35.82 300.025 35.745 300.095 35.695C300.165 35.645 300.24 35.62 300.32 35.62C300.38 35.62 300.44 35.635 300.5 35.665C301.14 36.015 301.75 36.19 302.33 36.19C303.16 36.19 303.815 35.93 304.295 35.41C304.785 34.89 305.03 34.18 305.03 33.28V32.755C304.78 33.175 304.42 33.515 303.95 33.775C303.48 34.025 302.97 34.15 302.42 34.15C301.55 34.15 300.89 33.89 300.44 33.37C299.99 32.85 299.765 32.145 299.765 31.255V26.65C299.765 26.52 299.805 26.415 299.885 26.335C299.975 26.245 300.085 26.2 300.215 26.2C300.345 26.2 300.45 26.245 300.53 26.335C300.62 26.415 300.665 26.52 300.665 26.65V31.12C300.665 31.84 300.82 32.385 301.13 32.755C301.45 33.125 301.945 33.31 302.615 33.31C303.025 33.31 303.415 33.21 303.785 33.01C304.165 32.8 304.465 32.53 304.685 32.2C304.915 31.86 305.03 31.5 305.03 31.12V26.65C305.03 26.52 305.07 26.415 305.15 26.335C305.24 26.245 305.35 26.2 305.48 26.2ZM320.282 33.19C320.432 33.29 320.507 33.415 320.507 33.565C320.507 33.615 320.487 33.68 320.447 33.76C320.407 33.83 320.352 33.885 320.282 33.925C320.212 33.965 320.137 33.985 320.057 33.985C319.957 33.985 319.872 33.965 319.802 33.925C319.522 33.765 319.297 33.505 319.127 33.145C318.957 32.785 318.872 32.21 318.872 31.42C318.872 30.72 318.677 30.23 318.287 29.95C317.897 29.66 317.432 29.515 316.892 29.515H313.562V33.55C313.562 33.68 313.522 33.79 313.442 33.88C313.362 33.96 313.257 34 313.127 34C312.987 34 312.867 33.96 312.767 33.88C312.667 33.79 312.617 33.68 312.617 33.55V23.95C312.617 23.82 312.657 23.715 312.737 23.635C312.827 23.545 312.937 23.5 313.067 23.5H317.117C317.687 23.5 318.197 23.625 318.647 23.875C319.097 24.115 319.447 24.45 319.697 24.88C319.957 25.31 320.087 25.795 320.087 26.335C320.087 26.975 319.917 27.54 319.577 28.03C319.247 28.51 318.812 28.84 318.272 29.02C318.712 29.19 319.072 29.48 319.352 29.89C319.632 30.29 319.777 30.78 319.787 31.36C319.797 31.98 319.837 32.415 319.907 32.665C319.987 32.915 320.112 33.09 320.282 33.19ZM317.162 28.69C317.512 28.66 317.837 28.545 318.137 28.345C318.437 28.145 318.677 27.875 318.857 27.535C319.037 27.195 319.127 26.805 319.127 26.365C319.127 25.795 318.932 25.325 318.542 24.955C318.162 24.575 317.662 24.385 317.042 24.385H313.562V28.69H317.162ZM328.848 29.725C328.848 29.845 328.803 29.95 328.713 30.04C328.623 30.12 328.518 30.16 328.398 30.16H322.728C322.728 30.76 322.848 31.3 323.088 31.78C323.338 32.25 323.688 32.625 324.138 32.905C324.598 33.175 325.138 33.31 325.758 33.31C326.238 33.31 326.668 33.21 327.048 33.01C327.428 32.81 327.733 32.555 327.963 32.245C328.073 32.155 328.178 32.11 328.278 32.11C328.378 32.11 328.468 32.15 328.548 32.23C328.628 32.31 328.668 32.4 328.668 32.5C328.668 32.61 328.618 32.715 328.518 32.815C328.198 33.205 327.793 33.525 327.303 33.775C326.823 34.025 326.313 34.15 325.773 34.15C325.003 34.15 324.323 33.985 323.733 33.655C323.143 33.325 322.683 32.865 322.353 32.275C322.023 31.675 321.858 30.985 321.858 30.205C321.858 29.385 322.018 28.67 322.338 28.06C322.668 27.44 323.103 26.97 323.643 26.65C324.183 26.32 324.758 26.155 325.368 26.155C325.968 26.155 326.528 26.295 327.048 26.575C327.578 26.855 328.008 27.265 328.338 27.805C328.668 28.345 328.838 28.985 328.848 29.725ZM325.368 27.025C324.788 27.025 324.248 27.225 323.748 27.625C323.258 28.025 322.943 28.6 322.803 29.35H327.918V29.23C327.868 28.78 327.718 28.39 327.468 28.06C327.218 27.72 326.903 27.465 326.523 27.295C326.153 27.115 325.768 27.025 325.368 27.025ZM332.203 27.205V32.23C332.203 32.61 332.273 32.87 332.413 33.01C332.553 33.14 332.738 33.205 332.968 33.205C333.028 33.205 333.103 33.195 333.193 33.175C333.283 33.145 333.353 33.13 333.403 33.13C333.493 33.13 333.568 33.17 333.628 33.25C333.698 33.32 333.733 33.405 333.733 33.505C333.733 33.645 333.653 33.765 333.493 33.865C333.333 33.955 333.143 34 332.923 34C332.653 34 332.413 33.975 332.203 33.925C331.993 33.875 331.788 33.725 331.588 33.475C331.398 33.225 331.303 32.825 331.303 32.275V27.205H330.208C330.088 27.205 329.983 27.165 329.893 27.085C329.813 27.005 329.773 26.905 329.773 26.785C329.773 26.665 329.813 26.565 329.893 26.485C329.983 26.405 330.088 26.365 330.208 26.365H331.303V24.7C331.303 24.57 331.343 24.465 331.423 24.385C331.513 24.295 331.623 24.25 331.753 24.25C331.883 24.25 331.988 24.295 332.068 24.385C332.158 24.465 332.203 24.57 332.203 24.7V26.365H333.703C333.813 26.365 333.908 26.41 333.988 26.5C334.078 26.59 334.123 26.69 334.123 26.8C334.123 26.92 334.083 27.02 334.003 27.1C333.923 27.17 333.823 27.205 333.703 27.205H332.203ZM341.516 26.38C341.646 26.38 341.751 26.425 341.831 26.515C341.921 26.595 341.966 26.7 341.966 26.83V31.06C341.966 32.04 341.691 32.795 341.141 33.325C340.591 33.845 339.831 34.105 338.861 34.105C337.901 34.105 337.146 33.845 336.596 33.325C336.056 32.795 335.786 32.04 335.786 31.06V26.83C335.786 26.7 335.826 26.595 335.906 26.515C335.996 26.425 336.106 26.38 336.236 26.38C336.366 26.38 336.471 26.425 336.551 26.515C336.641 26.595 336.686 26.7 336.686 26.83V31.06C336.686 31.78 336.876 32.33 337.256 32.71C337.636 33.08 338.171 33.265 338.861 33.265C339.561 33.265 340.101 33.08 340.481 32.71C340.871 32.33 341.066 31.78 341.066 31.06V26.83C341.066 26.7 341.106 26.595 341.186 26.515C341.276 26.425 341.386 26.38 341.516 26.38ZM347.911 26.155C348.111 26.155 348.291 26.195 348.451 26.275C348.611 26.355 348.691 26.475 348.691 26.635C348.691 26.775 348.651 26.89 348.571 26.98C348.491 27.06 348.396 27.1 348.286 27.1C348.236 27.1 348.136 27.075 347.986 27.025C347.846 26.975 347.711 26.95 347.581 26.95C347.211 26.95 346.841 27.095 346.471 27.385C346.111 27.665 345.811 28.03 345.571 28.48C345.341 28.93 345.226 29.385 345.226 29.845V33.55C345.226 33.68 345.181 33.79 345.091 33.88C345.011 33.96 344.906 34 344.776 34C344.646 34 344.536 33.96 344.446 33.88C344.366 33.79 344.326 33.68 344.326 33.55V26.83C344.326 26.7 344.366 26.595 344.446 26.515C344.536 26.425 344.646 26.38 344.776 26.38C344.906 26.38 345.011 26.425 345.091 26.515C345.181 26.595 345.226 26.7 345.226 26.83V28.15C345.456 27.58 345.801 27.11 346.261 26.74C346.731 26.36 347.281 26.165 347.911 26.155ZM353.712 26.155C354.642 26.155 355.322 26.43 355.752 26.98C356.192 27.52 356.412 28.24 356.412 29.14V33.55C356.412 33.68 356.367 33.79 356.277 33.88C356.187 33.96 356.082 34 355.962 34C355.832 34 355.722 33.96 355.632 33.88C355.552 33.79 355.512 33.68 355.512 33.55V29.185C355.512 28.535 355.347 28.01 355.017 27.61C354.697 27.2 354.197 26.995 353.517 26.995C353.087 26.995 352.677 27.095 352.287 27.295C351.907 27.495 351.597 27.765 351.357 28.105C351.117 28.435 350.997 28.795 350.997 29.185V33.55C350.997 33.68 350.952 33.79 350.862 33.88C350.782 33.96 350.677 34 350.547 34C350.417 34 350.307 33.96 350.217 33.88C350.137 33.79 350.097 33.68 350.097 33.55V26.83C350.097 26.7 350.137 26.595 350.217 26.515C350.307 26.425 350.417 26.38 350.547 26.38C350.677 26.38 350.782 26.425 350.862 26.515C350.952 26.595 350.997 26.7 350.997 26.83V27.655C351.267 27.225 351.652 26.87 352.152 26.59C352.662 26.3 353.182 26.155 353.712 26.155ZM358.334 32.785C358.254 32.655 358.214 32.545 358.214 32.455C358.214 32.325 358.279 32.225 358.409 32.155C358.469 32.095 358.549 32.065 358.649 32.065C358.769 32.065 358.879 32.115 358.979 32.215C359.569 32.995 360.354 33.385 361.334 33.385C361.814 33.385 362.229 33.275 362.579 33.055C362.939 32.825 363.119 32.495 363.119 32.065C363.119 31.645 362.954 31.33 362.624 31.12C362.294 30.91 361.834 30.73 361.244 30.58C360.414 30.37 359.764 30.1 359.294 29.77C358.824 29.43 358.589 28.935 358.589 28.285C358.589 27.875 358.704 27.51 358.934 27.19C359.164 26.86 359.474 26.605 359.864 26.425C360.264 26.245 360.714 26.155 361.214 26.155C361.644 26.155 362.074 26.24 362.504 26.41C362.944 26.57 363.319 26.83 363.629 27.19C363.719 27.26 363.764 27.36 363.764 27.49C363.764 27.61 363.714 27.715 363.614 27.805C363.544 27.865 363.454 27.895 363.344 27.895C363.244 27.895 363.154 27.855 363.074 27.775C362.834 27.505 362.549 27.3 362.219 27.16C361.889 27.02 361.534 26.95 361.154 26.95C360.684 26.95 360.279 27.06 359.939 27.28C359.609 27.5 359.444 27.83 359.444 28.27C359.464 28.67 359.644 28.975 359.984 29.185C360.334 29.395 360.844 29.585 361.514 29.755C362.034 29.885 362.464 30.03 362.804 30.19C363.144 30.35 363.419 30.575 363.629 30.865C363.849 31.155 363.959 31.54 363.959 32.02C363.959 32.67 363.699 33.19 363.179 33.58C362.659 33.96 362.014 34.15 361.244 34.15C360.024 34.15 359.054 33.695 358.334 32.785Z" fill="black"/>
<rect x="437" y="8" width="40" height="40" rx="20" fill="#C4C4C4"/>
<g filter="url(#filter2_d)">
<path d="M463.478 37.3952C463.497 37.4563 463.499 37.5216 463.484 37.5838C463.468 37.646 463.435 37.7025 463.388 37.747C463.342 37.7916 463.283 37.8223 463.22 37.8358C463.157 37.8492 463.091 37.8449 463.03 37.8233L460.964 37.1579L459.65 38.8679C459.611 38.9173 459.559 38.9552 459.5 38.9775C459.441 38.9998 459.377 39.0057 459.315 38.9945C459.252 38.9833 459.194 38.9555 459.147 38.914C459.1 38.8725 459.064 38.819 459.046 38.7592L457.606 34.1614L458.808 34.605C459.3 34.7822 459.838 34.7822 460.329 34.605C460.821 34.4277 461.233 34.0845 461.494 33.6357L462.018 32.7485L463.478 37.3952ZM465.351 24.7905L464.387 26.4473C464.257 26.6697 464.21 26.9304 464.255 27.1837L464.59 29.0667C464.635 29.3199 464.589 29.5808 464.459 29.8035C464.329 30.0262 464.125 30.1965 463.881 30.2844L462.068 30.9387C461.824 31.0269 461.619 31.1973 461.49 31.42L460.525 33.0768C460.395 33.3017 460.189 33.4736 459.943 33.5618C459.697 33.6499 459.427 33.6486 459.182 33.5581L457.369 32.9038C457.125 32.816 456.858 32.816 456.615 32.9038L454.808 33.5448C454.563 33.6353 454.293 33.6366 454.047 33.5485C453.801 33.4603 453.595 33.2884 453.465 33.0635L452.5 31.4067C452.371 31.184 452.166 31.0136 451.923 30.9254L450.109 30.2711C449.866 30.1832 449.661 30.0129 449.531 29.7902C449.401 29.5675 449.355 29.3066 449.4 29.0534L449.736 27.1703C449.78 26.9225 449.736 26.6671 449.613 26.4473L448.648 24.7905C448.518 24.5679 448.472 24.3072 448.517 24.0541C448.562 23.801 448.695 23.5717 448.894 23.4064L450.371 22.1777C450.57 22.0126 450.704 21.7833 450.75 21.53L451.085 19.647C451.13 19.3934 451.264 19.1636 451.463 18.998C451.662 18.8325 451.914 18.7419 452.173 18.7421H454.103C454.363 18.7417 454.614 18.6506 454.813 18.4848L456.29 17.256C456.489 17.0907 456.74 17 457 17C457.259 17 457.51 17.0907 457.709 17.256L459.187 18.4848C459.385 18.6498 459.637 18.7401 459.896 18.7398H461.826C462.086 18.7396 462.337 18.8303 462.536 18.9958C462.735 19.1614 462.869 19.3912 462.914 19.6448L463.249 21.5278C463.295 21.7811 463.429 22.0104 463.628 22.1755L465.105 23.4042C465.304 23.5696 465.438 23.7993 465.483 24.0529C465.528 24.3065 465.482 24.5677 465.351 24.7905ZM460.445 24.4933C460.414 24.4001 460.358 24.3172 460.282 24.2541C460.207 24.1909 460.115 24.1501 460.017 24.1362L458.262 23.8833L457.476 22.3086C457.433 22.2206 457.365 22.1466 457.281 22.0948C457.197 22.0431 457.1 22.0157 457.001 22.0157C456.902 22.0157 456.805 22.0431 456.721 22.0948C456.637 22.1466 456.569 22.2206 456.525 22.3086L455.739 23.8833L453.984 24.1362C453.888 24.1513 453.798 24.1924 453.724 24.2549C453.65 24.3174 453.594 24.3989 453.564 24.4906C453.533 24.5822 453.529 24.6804 453.551 24.7743C453.573 24.8683 453.621 24.9545 453.689 25.0233L454.96 26.2499L454.66 27.9999C454.645 28.0962 454.657 28.1949 454.696 28.2847C454.734 28.3746 454.796 28.4522 454.877 28.5088C454.957 28.5655 455.051 28.5989 455.149 28.6053C455.248 28.6118 455.346 28.5911 455.433 28.5455L457 27.7271L458.567 28.5455C458.654 28.5911 458.752 28.6118 458.85 28.6053C458.948 28.5989 459.042 28.5655 459.123 28.5088C459.203 28.4522 459.265 28.3746 459.304 28.2847C459.342 28.1949 459.354 28.0962 459.339 27.9999L459.039 26.2676L460.31 25.0411C460.383 24.972 460.434 24.8837 460.458 24.7866C460.482 24.6895 460.477 24.5877 460.445 24.4933ZM450.956 37.8233L453.022 37.1579L454.349 38.8679C454.388 38.9173 454.44 38.9552 454.499 38.9775C454.558 38.9998 454.622 39.0057 454.685 38.9945C454.747 38.9833 454.805 38.9555 454.852 38.914C454.9 38.8725 454.935 38.819 454.954 38.7592L456.393 34.1658L455.191 34.6094C454.7 34.7867 454.161 34.7867 453.67 34.6094C453.178 34.4321 452.766 34.0889 452.505 33.6402L451.983 32.7397L450.521 37.3974C450.504 37.457 450.503 37.5201 450.518 37.5803C450.534 37.6404 450.566 37.6952 450.61 37.7388C450.655 37.7825 450.71 37.8134 450.771 37.8283C450.832 37.8431 450.896 37.8414 450.956 37.8233Z" fill="#3C3C3C"/>
</g>
<path d="M500.49 34.84C500.6 34.84 500.695 34.88 500.775 34.96C500.855 35.04 500.895 35.135 500.895 35.245C500.895 35.465 500.745 35.68 500.445 35.89C500.155 36.1 499.79 36.27 499.35 36.4C498.92 36.54 498.52 36.61 498.15 36.61C497.58 36.61 497.1 36.545 496.71 36.415C496.33 36.295 495.91 36.12 495.45 35.89C495.08 35.69 494.765 35.545 494.505 35.455C494.245 35.365 493.94 35.32 493.59 35.32C493.46 35.32 493.34 35.335 493.23 35.365C493.13 35.395 493.005 35.445 492.855 35.515C492.635 35.615 492.475 35.665 492.375 35.665C492.255 35.665 492.15 35.62 492.06 35.53C491.98 35.44 491.94 35.335 491.94 35.215C491.94 35.015 492.025 34.885 492.195 34.825L494.16 34.12C493.29 34.03 492.52 33.745 491.85 33.265C491.18 32.775 490.655 32.14 490.275 31.36C489.905 30.58 489.72 29.71 489.72 28.75C489.72 27.71 489.935 26.78 490.365 25.96C490.795 25.14 491.39 24.5 492.15 24.04C492.91 23.58 493.775 23.35 494.745 23.35C495.715 23.35 496.58 23.58 497.34 24.04C498.1 24.5 498.695 25.14 499.125 25.96C499.555 26.78 499.77 27.71 499.77 28.75C499.77 29.64 499.605 30.455 499.275 31.195C498.955 31.935 498.505 32.55 497.925 33.04C497.345 33.53 496.67 33.86 495.9 34.03L494.325 34.555C494.615 34.585 494.875 34.645 495.105 34.735C495.345 34.835 495.645 34.97 496.005 35.14C496.415 35.35 496.78 35.505 497.1 35.605C497.42 35.715 497.78 35.77 498.18 35.77C498.52 35.77 498.81 35.725 499.05 35.635C499.3 35.545 499.54 35.43 499.77 35.29C499.86 35.24 499.955 35.165 500.055 35.065C500.125 35.005 500.195 34.95 500.265 34.9C500.345 34.86 500.42 34.84 500.49 34.84ZM490.68 28.75C490.68 29.62 490.85 30.4 491.19 31.09C491.54 31.77 492.02 32.3 492.63 32.68C493.25 33.06 493.955 33.25 494.745 33.25C495.535 33.25 496.235 33.06 496.845 32.68C497.465 32.3 497.945 31.77 498.285 31.09C498.635 30.4 498.81 29.62 498.81 28.75C498.81 27.88 498.635 27.105 498.285 26.425C497.945 25.735 497.465 25.2 496.845 24.82C496.235 24.44 495.535 24.25 494.745 24.25C493.955 24.25 493.25 24.44 492.63 24.82C492.02 25.2 491.54 25.735 491.19 26.425C490.85 27.105 490.68 27.88 490.68 28.75ZM507.546 26.38C507.676 26.38 507.781 26.425 507.861 26.515C507.951 26.595 507.996 26.7 507.996 26.83V31.06C507.996 32.04 507.721 32.795 507.171 33.325C506.621 33.845 505.861 34.105 504.891 34.105C503.931 34.105 503.176 33.845 502.626 33.325C502.086 32.795 501.816 32.04 501.816 31.06V26.83C501.816 26.7 501.856 26.595 501.936 26.515C502.026 26.425 502.136 26.38 502.266 26.38C502.396 26.38 502.501 26.425 502.581 26.515C502.671 26.595 502.716 26.7 502.716 26.83V31.06C502.716 31.78 502.906 32.33 503.286 32.71C503.666 33.08 504.201 33.265 504.891 33.265C505.591 33.265 506.131 33.08 506.511 32.71C506.901 32.33 507.096 31.78 507.096 31.06V26.83C507.096 26.7 507.136 26.595 507.216 26.515C507.306 26.425 507.416 26.38 507.546 26.38ZM516.581 26.335C516.711 26.335 516.816 26.38 516.896 26.47C516.986 26.56 517.031 26.67 517.031 26.8V33.55C517.031 33.68 516.986 33.79 516.896 33.88C516.816 33.96 516.711 34 516.581 34C516.451 34 516.341 33.96 516.251 33.88C516.171 33.79 516.131 33.68 516.131 33.55V32.545C515.881 32.995 515.506 33.375 515.006 33.685C514.506 33.995 513.961 34.15 513.371 34.15C512.701 34.15 512.096 33.975 511.556 33.625C511.026 33.275 510.606 32.795 510.296 32.185C509.996 31.575 509.846 30.89 509.846 30.13C509.846 29.37 510.001 28.69 510.311 28.09C510.621 27.48 511.041 27.005 511.571 26.665C512.111 26.325 512.706 26.155 513.356 26.155C513.956 26.155 514.506 26.3 515.006 26.59C515.506 26.88 515.881 27.26 516.131 27.73V26.8C516.131 26.67 516.171 26.56 516.251 26.47C516.341 26.38 516.451 26.335 516.581 26.335ZM513.461 33.31C513.981 33.31 514.446 33.175 514.856 32.905C515.276 32.625 515.601 32.245 515.831 31.765C516.071 31.275 516.191 30.73 516.191 30.13C516.191 29.55 516.071 29.02 515.831 28.54C515.601 28.06 515.276 27.685 514.856 27.415C514.446 27.135 513.981 26.995 513.461 26.995C512.941 26.995 512.471 27.13 512.051 27.4C511.641 27.67 511.316 28.045 511.076 28.525C510.846 28.995 510.731 29.53 510.731 30.13C510.731 30.73 510.846 31.275 511.076 31.765C511.306 32.245 511.626 32.625 512.036 32.905C512.456 33.175 512.931 33.31 513.461 33.31ZM520.369 33.55C520.369 33.68 520.324 33.79 520.234 33.88C520.154 33.96 520.049 34 519.919 34C519.789 34 519.679 33.96 519.589 33.88C519.509 33.79 519.469 33.68 519.469 33.55V23.35C519.469 23.22 519.509 23.115 519.589 23.035C519.679 22.945 519.789 22.9 519.919 22.9C520.049 22.9 520.154 22.945 520.234 23.035C520.324 23.115 520.369 23.22 520.369 23.35V33.55ZM523.706 33.55C523.706 33.68 523.661 33.79 523.571 33.88C523.491 33.96 523.386 34 523.256 34C523.126 34 523.016 33.96 522.926 33.88C522.846 33.79 522.806 33.68 522.806 33.55V26.65C522.806 26.52 522.846 26.415 522.926 26.335C523.016 26.245 523.126 26.2 523.256 26.2C523.386 26.2 523.491 26.245 523.571 26.335C523.661 26.415 523.706 26.52 523.706 26.65V33.55ZM523.256 25.195C523.056 25.195 522.901 25.15 522.791 25.06C522.681 24.96 522.626 24.82 522.626 24.64V24.49C522.626 24.31 522.681 24.175 522.791 24.085C522.911 23.985 523.071 23.935 523.271 23.935C523.671 23.935 523.871 24.12 523.871 24.49V24.64C523.871 24.82 523.816 24.96 523.706 25.06C523.606 25.15 523.456 25.195 523.256 25.195ZM527.544 27.205V32.23C527.544 32.61 527.614 32.87 527.754 33.01C527.894 33.14 528.079 33.205 528.309 33.205C528.369 33.205 528.444 33.195 528.534 33.175C528.624 33.145 528.694 33.13 528.744 33.13C528.834 33.13 528.909 33.17 528.969 33.25C529.039 33.32 529.074 33.405 529.074 33.505C529.074 33.645 528.994 33.765 528.834 33.865C528.674 33.955 528.484 34 528.264 34C527.994 34 527.754 33.975 527.544 33.925C527.334 33.875 527.129 33.725 526.929 33.475C526.739 33.225 526.644 32.825 526.644 32.275V27.205H525.549C525.429 27.205 525.324 27.165 525.234 27.085C525.154 27.005 525.114 26.905 525.114 26.785C525.114 26.665 525.154 26.565 525.234 26.485C525.324 26.405 525.429 26.365 525.549 26.365H526.644V24.7C526.644 24.57 526.684 24.465 526.764 24.385C526.854 24.295 526.964 24.25 527.094 24.25C527.224 24.25 527.329 24.295 527.409 24.385C527.499 24.465 527.544 24.57 527.544 24.7V26.365H529.044C529.154 26.365 529.249 26.41 529.329 26.5C529.419 26.59 529.464 26.69 529.464 26.8C529.464 26.92 529.424 27.02 529.344 27.1C529.264 27.17 529.164 27.205 529.044 27.205H527.544ZM536.842 26.2C536.972 26.2 537.077 26.245 537.157 26.335C537.247 26.415 537.292 26.52 537.292 26.65V33.265C537.292 34.055 537.137 34.73 536.827 35.29C536.517 35.85 536.087 36.275 535.537 36.565C534.987 36.855 534.367 37 533.677 37C533.257 37 532.862 36.955 532.492 36.865C532.132 36.775 531.832 36.655 531.592 36.505C531.382 36.375 531.277 36.23 531.277 36.07C531.277 36.05 531.287 36 531.307 35.92C531.337 35.82 531.387 35.745 531.457 35.695C531.527 35.645 531.602 35.62 531.682 35.62C531.742 35.62 531.802 35.635 531.862 35.665C532.502 36.015 533.112 36.19 533.692 36.19C534.522 36.19 535.177 35.93 535.657 35.41C536.147 34.89 536.392 34.18 536.392 33.28V32.755C536.142 33.175 535.782 33.515 535.312 33.775C534.842 34.025 534.332 34.15 533.782 34.15C532.912 34.15 532.252 33.89 531.802 33.37C531.352 32.85 531.127 32.145 531.127 31.255V26.65C531.127 26.52 531.167 26.415 531.247 26.335C531.337 26.245 531.447 26.2 531.577 26.2C531.707 26.2 531.812 26.245 531.892 26.335C531.982 26.415 532.027 26.52 532.027 26.65V31.12C532.027 31.84 532.182 32.385 532.492 32.755C532.812 33.125 533.307 33.31 533.977 33.31C534.387 33.31 534.777 33.21 535.147 33.01C535.527 32.8 535.827 32.53 536.047 32.2C536.277 31.86 536.392 31.5 536.392 31.12V26.65C536.392 26.52 536.432 26.415 536.512 26.335C536.602 26.245 536.712 26.2 536.842 26.2ZM549.889 23.5C550.019 23.5 550.124 23.545 550.204 23.635C550.294 23.715 550.339 23.82 550.339 23.95C550.339 24.07 550.294 24.175 550.204 24.265C550.124 24.345 550.019 24.385 549.889 24.385H544.894V28.15H549.214C549.344 28.15 549.449 28.19 549.529 28.27C549.619 28.35 549.664 28.455 549.664 28.585C549.664 28.715 549.619 28.82 549.529 28.9C549.449 28.98 549.344 29.02 549.214 29.02H544.894V33.55C544.894 33.68 544.849 33.79 544.759 33.88C544.679 33.96 544.574 34 544.444 34C544.304 34 544.189 33.96 544.099 33.88C544.019 33.79 543.979 33.68 543.979 33.55V23.95C543.979 23.82 544.019 23.715 544.099 23.635C544.189 23.545 544.299 23.5 544.429 23.5H549.889ZM553.12 33.55C553.12 33.68 553.075 33.79 552.985 33.88C552.905 33.96 552.8 34 552.67 34C552.54 34 552.43 33.96 552.34 33.88C552.26 33.79 552.22 33.68 552.22 33.55V26.65C552.22 26.52 552.26 26.415 552.34 26.335C552.43 26.245 552.54 26.2 552.67 26.2C552.8 26.2 552.905 26.245 552.985 26.335C553.075 26.415 553.12 26.52 553.12 26.65V33.55ZM552.67 25.195C552.47 25.195 552.315 25.15 552.205 25.06C552.095 24.96 552.04 24.82 552.04 24.64V24.49C552.04 24.31 552.095 24.175 552.205 24.085C552.325 23.985 552.485 23.935 552.685 23.935C553.085 23.935 553.285 24.12 553.285 24.49V24.64C553.285 24.82 553.23 24.96 553.12 25.06C553.02 25.15 552.87 25.195 552.67 25.195ZM559.043 26.155C559.243 26.155 559.423 26.195 559.583 26.275C559.743 26.355 559.823 26.475 559.823 26.635C559.823 26.775 559.783 26.89 559.703 26.98C559.623 27.06 559.528 27.1 559.418 27.1C559.368 27.1 559.268 27.075 559.118 27.025C558.978 26.975 558.843 26.95 558.713 26.95C558.343 26.95 557.973 27.095 557.603 27.385C557.243 27.665 556.943 28.03 556.703 28.48C556.473 28.93 556.358 29.385 556.358 29.845V33.55C556.358 33.68 556.313 33.79 556.223 33.88C556.143 33.96 556.038 34 555.908 34C555.778 34 555.668 33.96 555.578 33.88C555.498 33.79 555.458 33.68 555.458 33.55V26.83C555.458 26.7 555.498 26.595 555.578 26.515C555.668 26.425 555.778 26.38 555.908 26.38C556.038 26.38 556.143 26.425 556.223 26.515C556.313 26.595 556.358 26.7 556.358 26.83V28.15C556.588 27.58 556.933 27.11 557.393 26.74C557.863 26.36 558.413 26.165 559.043 26.155ZM560.795 32.785C560.715 32.655 560.675 32.545 560.675 32.455C560.675 32.325 560.74 32.225 560.87 32.155C560.93 32.095 561.01 32.065 561.11 32.065C561.23 32.065 561.34 32.115 561.44 32.215C562.03 32.995 562.815 33.385 563.795 33.385C564.275 33.385 564.69 33.275 565.04 33.055C565.4 32.825 565.58 32.495 565.58 32.065C565.58 31.645 565.415 31.33 565.085 31.12C564.755 30.91 564.295 30.73 563.705 30.58C562.875 30.37 562.225 30.1 561.755 29.77C561.285 29.43 561.05 28.935 561.05 28.285C561.05 27.875 561.165 27.51 561.395 27.19C561.625 26.86 561.935 26.605 562.325 26.425C562.725 26.245 563.175 26.155 563.675 26.155C564.105 26.155 564.535 26.24 564.965 26.41C565.405 26.57 565.78 26.83 566.09 27.19C566.18 27.26 566.225 27.36 566.225 27.49C566.225 27.61 566.175 27.715 566.075 27.805C566.005 27.865 565.915 27.895 565.805 27.895C565.705 27.895 565.615 27.855 565.535 27.775C565.295 27.505 565.01 27.3 564.68 27.16C564.35 27.02 563.995 26.95 563.615 26.95C563.145 26.95 562.74 27.06 562.4 27.28C562.07 27.5 561.905 27.83 561.905 28.27C561.925 28.67 562.105 28.975 562.445 29.185C562.795 29.395 563.305 29.585 563.975 29.755C564.495 29.885 564.925 30.03 565.265 30.19C565.605 30.35 565.88 30.575 566.09 30.865C566.31 31.155 566.42 31.54 566.42 32.02C566.42 32.67 566.16 33.19 565.64 33.58C565.12 33.96 564.475 34.15 563.705 34.15C562.485 34.15 561.515 33.695 560.795 32.785ZM569.761 27.205V32.23C569.761 32.61 569.831 32.87 569.971 33.01C570.111 33.14 570.296 33.205 570.526 33.205C570.586 33.205 570.661 33.195 570.751 33.175C570.841 33.145 570.911 33.13 570.961 33.13C571.051 33.13 571.126 33.17 571.186 33.25C571.256 33.32 571.291 33.405 571.291 33.505C571.291 33.645 571.211 33.765 571.051 33.865C570.891 33.955 570.701 34 570.481 34C570.211 34 569.971 33.975 569.761 33.925C569.551 33.875 569.346 33.725 569.146 33.475C568.956 33.225 568.861 32.825 568.861 32.275V27.205H567.766C567.646 27.205 567.541 27.165 567.451 27.085C567.371 27.005 567.331 26.905 567.331 26.785C567.331 26.665 567.371 26.565 567.451 26.485C567.541 26.405 567.646 26.365 567.766 26.365H568.861V24.7C568.861 24.57 568.901 24.465 568.981 24.385C569.071 24.295 569.181 24.25 569.311 24.25C569.441 24.25 569.546 24.295 569.626 24.385C569.716 24.465 569.761 24.57 569.761 24.7V26.365H571.261C571.371 26.365 571.466 26.41 571.546 26.5C571.636 26.59 571.681 26.69 571.681 26.8C571.681 26.92 571.641 27.02 571.561 27.1C571.481 27.17 571.381 27.205 571.261 27.205H569.761Z" fill="black"/>
<rect x="645" y="8" width="40" height="40" rx="20" fill="#C4C4C4"/>
<g filter="url(#filter3_d)">
<path d="M673 30.8519C673 35.3519 669.418 39 665 39C660.582 39 657 35.3519 657 30.8519C657 25.1481 663.4 17 665 17C666.6 17 673 25.1481 673 30.8519Z" fill="#3C3C3C"/>
</g>
<path d="M662 31.1935L663.448 33L668 26" stroke="#C4C4C4" stroke-width="1.5" stroke-linecap="round" stroke-linejoin="round"/>
<path d="M702.685 23.5C703.645 23.5 704.45 23.74 705.1 24.22C705.76 24.69 706.25 25.325 706.57 26.125C706.9 26.915 707.065 27.79 707.065 28.75C707.065 29.74 706.9 30.63 706.57 31.42C706.25 32.21 705.76 32.84 705.1 33.31C704.45 33.77 703.645 34 702.685 34H698.86C698.73 34 698.62 33.96 698.53 33.88C698.45 33.79 698.41 33.68 698.41 33.55V23.95C698.41 23.82 698.45 23.715 698.53 23.635C698.62 23.545 698.73 23.5 698.86 23.5H702.685ZM702.535 33.115C703.735 33.115 704.63 32.715 705.22 31.915C705.81 31.105 706.105 30.05 706.105 28.75C706.105 27.94 705.98 27.21 705.73 26.56C705.48 25.9 705.085 25.375 704.545 24.985C704.015 24.585 703.345 24.385 702.535 24.385H699.355V33.115H702.535ZM715.563 29.725C715.563 29.845 715.518 29.95 715.428 30.04C715.338 30.12 715.233 30.16 715.113 30.16H709.443C709.443 30.76 709.563 31.3 709.803 31.78C710.053 32.25 710.403 32.625 710.853 32.905C711.313 33.175 711.853 33.31 712.473 33.31C712.953 33.31 713.383 33.21 713.763 33.01C714.143 32.81 714.448 32.555 714.678 32.245C714.788 32.155 714.893 32.11 714.993 32.11C715.093 32.11 715.183 32.15 715.263 32.23C715.343 32.31 715.383 32.4 715.383 32.5C715.383 32.61 715.333 32.715 715.233 32.815C714.913 33.205 714.508 33.525 714.018 33.775C713.538 34.025 713.028 34.15 712.488 34.15C711.718 34.15 711.038 33.985 710.448 33.655C709.858 33.325 709.398 32.865 709.068 32.275C708.738 31.675 708.573 30.985 708.573 30.205C708.573 29.385 708.733 28.67 709.053 28.06C709.383 27.44 709.818 26.97 710.358 26.65C710.898 26.32 711.473 26.155 712.083 26.155C712.683 26.155 713.243 26.295 713.763 26.575C714.293 26.855 714.723 27.265 715.053 27.805C715.383 28.345 715.553 28.985 715.563 29.725ZM712.083 27.025C711.503 27.025 710.963 27.225 710.463 27.625C709.973 28.025 709.658 28.6 709.518 29.35H714.633V29.23C714.583 28.78 714.433 28.39 714.183 28.06C713.933 27.72 713.618 27.465 713.238 27.295C712.868 27.115 712.483 27.025 712.083 27.025ZM721.003 26.155C721.203 26.155 721.383 26.195 721.543 26.275C721.703 26.355 721.783 26.475 721.783 26.635C721.783 26.775 721.743 26.89 721.663 26.98C721.583 27.06 721.488 27.1 721.378 27.1C721.328 27.1 721.228 27.075 721.078 27.025C720.938 26.975 720.803 26.95 720.673 26.95C720.303 26.95 719.933 27.095 719.563 27.385C719.203 27.665 718.903 28.03 718.663 28.48C718.433 28.93 718.318 29.385 718.318 29.845V33.55C718.318 33.68 718.273 33.79 718.183 33.88C718.103 33.96 717.998 34 717.868 34C717.738 34 717.628 33.96 717.538 33.88C717.458 33.79 717.418 33.68 717.418 33.55V26.83C717.418 26.7 717.458 26.595 717.538 26.515C717.628 26.425 717.738 26.38 717.868 26.38C717.998 26.38 718.103 26.425 718.183 26.515C718.273 26.595 718.318 26.7 718.318 26.83V28.15C718.548 27.58 718.893 27.11 719.353 26.74C719.823 26.36 720.373 26.165 721.003 26.155ZM731.89 26.275C732.79 26.275 733.45 26.555 733.87 27.115C734.3 27.665 734.515 28.395 734.515 29.305V33.55C734.515 33.68 734.47 33.79 734.38 33.88C734.3 33.96 734.195 34 734.065 34C733.935 34 733.825 33.96 733.735 33.88C733.655 33.79 733.615 33.68 733.615 33.55V29.35C733.615 28.69 733.455 28.155 733.135 27.745C732.825 27.325 732.34 27.115 731.68 27.115C731.26 27.115 730.86 27.215 730.48 27.415C730.11 27.615 729.81 27.89 729.58 28.24C729.35 28.58 729.235 28.95 729.235 29.35V33.55C729.235 33.68 729.19 33.79 729.1 33.88C729.02 33.96 728.915 34 728.785 34C728.655 34 728.545 33.96 728.455 33.88C728.375 33.79 728.335 33.68 728.335 33.55V29.305C728.335 28.655 728.185 28.13 727.885 27.73C727.585 27.32 727.115 27.115 726.475 27.115C726.065 27.115 725.675 27.215 725.305 27.415C724.945 27.615 724.65 27.885 724.42 28.225C724.2 28.555 724.09 28.915 724.09 29.305V33.55C724.09 33.68 724.045 33.79 723.955 33.88C723.875 33.96 723.77 34 723.64 34C723.51 34 723.4 33.96 723.31 33.88C723.23 33.79 723.19 33.68 723.19 33.55V26.83C723.19 26.7 723.23 26.595 723.31 26.515C723.4 26.425 723.51 26.38 723.64 26.38C723.77 26.38 723.875 26.425 723.955 26.515C724.045 26.595 724.09 26.7 724.09 26.83V27.7C724.36 27.29 724.725 26.95 725.185 26.68C725.645 26.41 726.13 26.275 726.64 26.275C727.22 26.275 727.72 26.415 728.14 26.695C728.56 26.975 728.86 27.385 729.04 27.925C729.25 27.485 729.635 27.1 730.195 26.77C730.755 26.44 731.32 26.275 731.89 26.275ZM743.097 26.335C743.227 26.335 743.332 26.38 743.412 26.47C743.502 26.56 743.547 26.67 743.547 26.8V33.55C743.547 33.68 743.502 33.79 743.412 33.88C743.332 33.96 743.227 34 743.097 34C742.967 34 742.857 33.96 742.767 33.88C742.687 33.79 742.647 33.68 742.647 33.55V32.545C742.397 32.995 742.022 33.375 741.522 33.685C741.022 33.995 740.477 34.15 739.887 34.15C739.217 34.15 738.612 33.975 738.072 33.625C737.542 33.275 737.122 32.795 736.812 32.185C736.512 31.575 736.362 30.89 736.362 30.13C736.362 29.37 736.517 28.69 736.827 28.09C737.137 27.48 737.557 27.005 738.087 26.665C738.627 26.325 739.222 26.155 739.872 26.155C740.472 26.155 741.022 26.3 741.522 26.59C742.022 26.88 742.397 27.26 742.647 27.73V26.8C742.647 26.67 742.687 26.56 742.767 26.47C742.857 26.38 742.967 26.335 743.097 26.335ZM739.977 33.31C740.497 33.31 740.962 33.175 741.372 32.905C741.792 32.625 742.117 32.245 742.347 31.765C742.587 31.275 742.707 30.73 742.707 30.13C742.707 29.55 742.587 29.02 742.347 28.54C742.117 28.06 741.792 27.685 741.372 27.415C740.962 27.135 740.497 26.995 739.977 26.995C739.457 26.995 738.987 27.13 738.567 27.4C738.157 27.67 737.832 28.045 737.592 28.525C737.362 28.995 737.247 29.53 737.247 30.13C737.247 30.73 737.362 31.275 737.592 31.765C737.822 32.245 738.142 32.625 738.552 32.905C738.972 33.175 739.447 33.31 739.977 33.31ZM747.395 27.205V32.23C747.395 32.61 747.465 32.87 747.605 33.01C747.745 33.14 747.93 33.205 748.16 33.205C748.22 33.205 748.295 33.195 748.385 33.175C748.475 33.145 748.545 33.13 748.595 33.13C748.685 33.13 748.76 33.17 748.82 33.25C748.89 33.32 748.925 33.405 748.925 33.505C748.925 33.645 748.845 33.765 748.685 33.865C748.525 33.955 748.335 34 748.115 34C747.845 34 747.605 33.975 747.395 33.925C747.185 33.875 746.98 33.725 746.78 33.475C746.59 33.225 746.495 32.825 746.495 32.275V27.205H745.4C745.28 27.205 745.175 27.165 745.085 27.085C745.005 27.005 744.965 26.905 744.965 26.785C744.965 26.665 745.005 26.565 745.085 26.485C745.175 26.405 745.28 26.365 745.4 26.365H746.495V24.7C746.495 24.57 746.535 24.465 746.615 24.385C746.705 24.295 746.815 24.25 746.945 24.25C747.075 24.25 747.18 24.295 747.26 24.385C747.35 24.465 747.395 24.57 747.395 24.7V26.365H748.895C749.005 26.365 749.1 26.41 749.18 26.5C749.27 26.59 749.315 26.69 749.315 26.8C749.315 26.92 749.275 27.02 749.195 27.1C749.115 27.17 749.015 27.205 748.895 27.205H747.395ZM757.985 30.16C757.985 30.91 757.82 31.59 757.49 32.2C757.16 32.81 756.705 33.29 756.125 33.64C755.545 33.98 754.9 34.15 754.19 34.15C753.48 34.15 752.835 33.98 752.255 33.64C751.675 33.29 751.22 32.81 750.89 32.2C750.56 31.59 750.395 30.91 750.395 30.16C750.395 29.41 750.56 28.73 750.89 28.12C751.22 27.51 751.675 27.03 752.255 26.68C752.835 26.33 753.48 26.155 754.19 26.155C754.9 26.155 755.545 26.33 756.125 26.68C756.705 27.03 757.16 27.51 757.49 28.12C757.82 28.73 757.985 29.41 757.985 30.16ZM757.085 30.16C757.085 29.56 756.96 29.02 756.71 28.54C756.46 28.06 756.11 27.685 755.66 27.415C755.22 27.135 754.73 26.995 754.19 26.995C753.65 26.995 753.16 27.135 752.72 27.415C752.28 27.685 751.93 28.06 751.67 28.54C751.42 29.02 751.295 29.56 751.295 30.16C751.295 30.75 751.42 31.285 751.67 31.765C751.93 32.245 752.28 32.625 752.72 32.905C753.16 33.175 753.65 33.31 754.19 33.31C754.73 33.31 755.22 33.175 755.66 32.905C756.11 32.635 756.46 32.26 756.71 31.78C756.96 31.3 757.085 30.76 757.085 30.16ZM760.816 33.55C760.816 33.68 760.771 33.79 760.681 33.88C760.601 33.96 760.496 34 760.366 34C760.236 34 760.126 33.96 760.036 33.88C759.956 33.79 759.916 33.68 759.916 33.55V23.35C759.916 23.22 759.956 23.115 760.036 23.035C760.126 22.945 760.236 22.9 760.366 22.9C760.496 22.9 760.601 22.945 760.681 23.035C760.771 23.115 760.816 23.22 760.816 23.35V33.55ZM770.216 30.16C770.216 30.91 770.051 31.59 769.721 32.2C769.391 32.81 768.936 33.29 768.356 33.64C767.776 33.98 767.131 34.15 766.421 34.15C765.711 34.15 765.066 33.98 764.486 33.64C763.906 33.29 763.451 32.81 763.121 32.2C762.791 31.59 762.626 30.91 762.626 30.16C762.626 29.41 762.791 28.73 763.121 28.12C763.451 27.51 763.906 27.03 764.486 26.68C765.066 26.33 765.711 26.155 766.421 26.155C767.131 26.155 767.776 26.33 768.356 26.68C768.936 27.03 769.391 27.51 769.721 28.12C770.051 28.73 770.216 29.41 770.216 30.16ZM769.316 30.16C769.316 29.56 769.191 29.02 768.941 28.54C768.691 28.06 768.341 27.685 767.891 27.415C767.451 27.135 766.961 26.995 766.421 26.995C765.881 26.995 765.391 27.135 764.951 27.415C764.511 27.685 764.161 28.06 763.901 28.54C763.651 29.02 763.526 29.56 763.526 30.16C763.526 30.75 763.651 31.285 763.901 31.765C764.161 32.245 764.511 32.625 764.951 32.905C765.391 33.175 765.881 33.31 766.421 33.31C766.961 33.31 767.451 33.175 767.891 32.905C768.341 32.635 768.691 32.26 768.941 31.78C769.191 31.3 769.316 30.76 769.316 30.16ZM778.537 26.335C778.667 26.335 778.772 26.38 778.852 26.47C778.942 26.55 778.987 26.66 778.987 26.8V33.295C778.987 34.075 778.822 34.74 778.492 35.29C778.172 35.85 777.727 36.275 777.157 36.565C776.597 36.855 775.952 37 775.222 37C774.872 37 774.502 36.955 774.112 36.865C773.732 36.775 773.402 36.66 773.122 36.52C772.852 36.38 772.697 36.235 772.657 36.085C772.587 36.015 772.552 35.935 772.552 35.845C772.552 35.745 772.597 35.665 772.687 35.605C772.727 35.575 772.777 35.56 772.837 35.56C772.897 35.56 773.012 35.595 773.182 35.665L773.497 35.8C774.117 36.04 774.697 36.16 775.237 36.16C776.127 36.16 776.822 35.905 777.322 35.395C777.832 34.895 778.087 34.215 778.087 33.355V32.425C777.837 32.965 777.442 33.39 776.902 33.7C776.362 34 775.797 34.15 775.207 34.15C774.517 34.15 773.892 33.98 773.332 33.64C772.782 33.29 772.347 32.81 772.027 32.2C771.707 31.59 771.547 30.905 771.547 30.145C771.547 29.395 771.707 28.715 772.027 28.105C772.347 27.495 772.782 27.02 773.332 26.68C773.892 26.33 774.512 26.155 775.192 26.155C775.822 26.155 776.397 26.315 776.917 26.635C777.447 26.945 777.837 27.32 778.087 27.76V26.8C778.087 26.67 778.127 26.56 778.207 26.47C778.297 26.38 778.407 26.335 778.537 26.335ZM775.282 33.31C775.832 33.31 776.322 33.18 776.752 32.92C777.192 32.65 777.532 32.275 777.772 31.795C778.022 31.305 778.147 30.755 778.147 30.145C778.147 29.535 778.022 28.99 777.772 28.51C777.532 28.03 777.192 27.66 776.752 27.4C776.322 27.13 775.832 26.995 775.282 26.995C774.742 26.995 774.252 27.135 773.812 27.415C773.382 27.685 773.042 28.06 772.792 28.54C772.552 29.02 772.432 29.555 772.432 30.145C772.432 30.745 772.552 31.285 772.792 31.765C773.042 32.245 773.382 32.625 773.812 32.905C774.252 33.175 774.742 33.31 775.282 33.31ZM782.229 33.55C782.229 33.68 782.184 33.79 782.094 33.88C782.014 33.96 781.909 34 781.779 34C781.649 34 781.539 33.96 781.449 33.88C781.369 33.79 781.329 33.68 781.329 33.55V26.65C781.329 26.52 781.369 26.415 781.449 26.335C781.539 26.245 781.649 26.2 781.779 26.2C781.909 26.2 782.014 26.245 782.094 26.335C782.184 26.415 782.229 26.52 782.229 26.65V33.55ZM781.779 25.195C781.579 25.195 781.424 25.15 781.314 25.06C781.204 24.96 781.149 24.82 781.149 24.64V24.49C781.149 24.31 781.204 24.175 781.314 24.085C781.434 23.985 781.594 23.935 781.794 23.935C782.194 23.935 782.394 24.12 782.394 24.49V24.64C782.394 24.82 782.339 24.96 782.229 25.06C782.129 25.15 781.979 25.195 781.779 25.195ZM787.882 26.155C788.352 26.155 788.787 26.21 789.187 26.32C789.597 26.42 789.922 26.56 790.162 26.74C790.412 26.92 790.537 27.115 790.537 27.325C790.537 27.435 790.497 27.535 790.417 27.625C790.347 27.715 790.257 27.76 790.147 27.76C790.047 27.76 789.962 27.74 789.892 27.7C789.832 27.66 789.762 27.6 789.682 27.52C789.552 27.39 789.427 27.295 789.307 27.235C789.157 27.165 788.957 27.11 788.707 27.07C788.467 27.02 788.207 26.995 787.927 26.995C787.377 26.995 786.872 27.135 786.412 27.415C785.962 27.695 785.607 28.075 785.347 28.555C785.087 29.035 784.957 29.565 784.957 30.145C784.957 30.745 785.082 31.285 785.332 31.765C785.582 32.245 785.927 32.625 786.367 32.905C786.817 33.175 787.327 33.31 787.897 33.31C788.257 33.31 788.542 33.28 788.752 33.22C788.972 33.16 789.187 33.075 789.397 32.965C789.467 32.925 789.587 32.835 789.757 32.695C789.837 32.625 789.907 32.575 789.967 32.545C790.027 32.505 790.092 32.485 790.162 32.485C790.282 32.485 790.377 32.525 790.447 32.605C790.517 32.675 790.552 32.77 790.552 32.89C790.552 33.06 790.432 33.245 790.192 33.445C789.952 33.635 789.622 33.8 789.202 33.94C788.782 34.08 788.317 34.15 787.807 34.15C787.077 34.15 786.427 33.98 785.857 33.64C785.287 33.29 784.842 32.81 784.522 32.2C784.212 31.59 784.057 30.905 784.057 30.145C784.057 29.415 784.217 28.75 784.537 28.15C784.857 27.54 785.307 27.055 785.887 26.695C786.467 26.335 787.132 26.155 787.882 26.155ZM798.497 26.335C798.627 26.335 798.732 26.38 798.812 26.47C798.902 26.56 798.947 26.67 798.947 26.8V33.55C798.947 33.68 798.902 33.79 798.812 33.88C798.732 33.96 798.627 34 798.497 34C798.367 34 798.257 33.96 798.167 33.88C798.087 33.79 798.047 33.68 798.047 33.55V32.545C797.797 32.995 797.422 33.375 796.922 33.685C796.422 33.995 795.877 34.15 795.287 34.15C794.617 34.15 794.012 33.975 793.472 33.625C792.942 33.275 792.522 32.795 792.212 32.185C791.912 31.575 791.762 30.89 791.762 30.13C791.762 29.37 791.917 28.69 792.227 28.09C792.537 27.48 792.957 27.005 793.487 26.665C794.027 26.325 794.622 26.155 795.272 26.155C795.872 26.155 796.422 26.3 796.922 26.59C797.422 26.88 797.797 27.26 798.047 27.73V26.8C798.047 26.67 798.087 26.56 798.167 26.47C798.257 26.38 798.367 26.335 798.497 26.335ZM795.377 33.31C795.897 33.31 796.362 33.175 796.772 32.905C797.192 32.625 797.517 32.245 797.747 31.765C797.987 31.275 798.107 30.73 798.107 30.13C798.107 29.55 797.987 29.02 797.747 28.54C797.517 28.06 797.192 27.685 796.772 27.415C796.362 27.135 795.897 26.995 795.377 26.995C794.857 26.995 794.387 27.13 793.967 27.4C793.557 27.67 793.232 28.045 792.992 28.525C792.762 28.995 792.647 29.53 792.647 30.13C792.647 30.73 792.762 31.275 792.992 31.765C793.222 32.245 793.542 32.625 793.952 32.905C794.372 33.175 794.847 33.31 795.377 33.31ZM802.285 33.55C802.285 33.68 802.24 33.79 802.15 33.88C802.07 33.96 801.965 34 801.835 34C801.705 34 801.595 33.96 801.505 33.88C801.425 33.79 801.385 33.68 801.385 33.55V23.35C801.385 23.22 801.425 23.115 801.505 23.035C801.595 22.945 801.705 22.9 801.835 22.9C801.965 22.9 802.07 22.945 802.15 23.035C802.24 23.115 802.285 23.22 802.285 23.35V33.55ZM805.742 33.55C805.742 33.68 805.697 33.79 805.607 33.88C805.527 33.96 805.422 34 805.292 34C805.162 34 805.052 33.96 804.962 33.88C804.882 33.79 804.842 33.68 804.842 33.55V23.35C804.842 23.22 804.882 23.115 804.962 23.035C805.052 22.945 805.162 22.9 805.292 22.9C805.422 22.9 805.527 22.945 805.607 23.035C805.697 23.115 805.742 23.22 805.742 23.35V33.55ZM813.705 26.2C813.835 26.2 813.94 26.245 814.02 26.335C814.11 26.415 814.155 26.52 814.155 26.65V33.265C814.155 34.055 814 34.73 813.69 35.29C813.38 35.85 812.95 36.275 812.4 36.565C811.85 36.855 811.23 37 810.54 37C810.12 37 809.725 36.955 809.355 36.865C808.995 36.775 808.695 36.655 808.455 36.505C808.245 36.375 808.14 36.23 808.14 36.07C808.14 36.05 808.15 36 808.17 35.92C808.2 35.82 808.25 35.745 808.32 35.695C808.39 35.645 808.465 35.62 808.545 35.62C808.605 35.62 808.665 35.635 808.725 35.665C809.365 36.015 809.975 36.19 810.555 36.19C811.385 36.19 812.04 35.93 812.52 35.41C813.01 34.89 813.255 34.18 813.255 33.28V32.755C813.005 33.175 812.645 33.515 812.175 33.775C811.705 34.025 811.195 34.15 810.645 34.15C809.775 34.15 809.115 33.89 808.665 33.37C808.215 32.85 807.99 32.145 807.99 31.255V26.65C807.99 26.52 808.03 26.415 808.11 26.335C808.2 26.245 808.31 26.2 808.44 26.2C808.57 26.2 808.675 26.245 808.755 26.335C808.845 26.415 808.89 26.52 808.89 26.65V31.12C808.89 31.84 809.045 32.385 809.355 32.755C809.675 33.125 810.17 33.31 810.84 33.31C811.25 33.31 811.64 33.21 812.01 33.01C812.39 32.8 812.69 32.53 812.91 32.2C813.14 31.86 813.255 31.5 813.255 31.12V26.65C813.255 26.52 813.295 26.415 813.375 26.335C813.465 26.245 813.575 26.2 813.705 26.2ZM827.532 23.5C827.662 23.5 827.767 23.54 827.847 23.62C827.937 23.7 827.982 23.805 827.982 23.935C827.982 24.065 827.937 24.17 827.847 24.25C827.767 24.32 827.662 24.355 827.532 24.355H824.427V33.55C824.427 33.68 824.382 33.79 824.292 33.88C824.202 33.96 824.092 34 823.962 34C823.822 34 823.707 33.96 823.617 33.88C823.537 33.79 823.497 33.68 823.497 33.55V24.355H820.392C820.262 24.355 820.152 24.315 820.062 24.235C819.982 24.155 819.942 24.05 819.942 23.92C819.942 23.8 819.982 23.7 820.062 23.62C820.152 23.54 820.262 23.5 820.392 23.5H827.532ZM834.348 29.725C834.348 29.845 834.303 29.95 834.213 30.04C834.123 30.12 834.018 30.16 833.898 30.16H828.228C828.228 30.76 828.348 31.3 828.588 31.78C828.838 32.25 829.188 32.625 829.638 32.905C830.098 33.175 830.638 33.31 831.258 33.31C831.738 33.31 832.168 33.21 832.548 33.01C832.928 32.81 833.233 32.555 833.463 32.245C833.573 32.155 833.678 32.11 833.778 32.11C833.878 32.11 833.968 32.15 834.048 32.23C834.128 32.31 834.168 32.4 834.168 32.5C834.168 32.61 834.118 32.715 834.018 32.815C833.698 33.205 833.293 33.525 832.803 33.775C832.323 34.025 831.813 34.15 831.273 34.15C830.503 34.15 829.823 33.985 829.233 33.655C828.643 33.325 828.183 32.865 827.853 32.275C827.523 31.675 827.358 30.985 827.358 30.205C827.358 29.385 827.518 28.67 827.838 28.06C828.168 27.44 828.603 26.97 829.143 26.65C829.683 26.32 830.258 26.155 830.868 26.155C831.468 26.155 832.028 26.295 832.548 26.575C833.078 26.855 833.508 27.265 833.838 27.805C834.168 28.345 834.338 28.985 834.348 29.725ZM830.868 27.025C830.288 27.025 829.748 27.225 829.248 27.625C828.758 28.025 828.443 28.6 828.303 29.35H833.418V29.23C833.368 28.78 833.218 28.39 832.968 28.06C832.718 27.72 832.403 27.465 832.023 27.295C831.653 27.115 831.268 27.025 830.868 27.025ZM835.768 32.785C835.688 32.655 835.648 32.545 835.648 32.455C835.648 32.325 835.713 32.225 835.843 32.155C835.903 32.095 835.983 32.065 836.083 32.065C836.203 32.065 836.313 32.115 836.413 32.215C837.003 32.995 837.788 33.385 838.768 33.385C839.248 33.385 839.663 33.275 840.013 33.055C840.373 32.825 840.553 32.495 840.553 32.065C840.553 31.645 840.388 31.33 840.058 31.12C839.728 30.91 839.268 30.73 838.678 30.58C837.848 30.37 837.198 30.1 836.728 29.77C836.258 29.43 836.023 28.935 836.023 28.285C836.023 27.875 836.138 27.51 836.368 27.19C836.598 26.86 836.908 26.605 837.298 26.425C837.698 26.245 838.148 26.155 838.648 26.155C839.078 26.155 839.508 26.24 839.938 26.41C840.378 26.57 840.753 26.83 841.063 27.19C841.153 27.26 841.198 27.36 841.198 27.49C841.198 27.61 841.148 27.715 841.048 27.805C840.978 27.865 840.888 27.895 840.778 27.895C840.678 27.895 840.588 27.855 840.508 27.775C840.268 27.505 839.983 27.3 839.653 27.16C839.323 27.02 838.968 26.95 838.588 26.95C838.118 26.95 837.713 27.06 837.373 27.28C837.043 27.5 836.878 27.83 836.878 28.27C836.898 28.67 837.078 28.975 837.418 29.185C837.768 29.395 838.278 29.585 838.948 29.755C839.468 29.885 839.898 30.03 840.238 30.19C840.578 30.35 840.853 30.575 841.063 30.865C841.283 31.155 841.393 31.54 841.393 32.02C841.393 32.67 841.133 33.19 840.613 33.58C840.093 33.96 839.448 34.15 838.678 34.15C837.458 34.15 836.488 33.695 835.768 32.785ZM844.734 27.205V32.23C844.734 32.61 844.804 32.87 844.944 33.01C845.084 33.14 845.269 33.205 845.499 33.205C845.559 33.205 845.634 33.195 845.724 33.175C845.814 33.145 845.884 33.13 845.934 33.13C846.024 33.13 846.099 33.17 846.159 33.25C846.229 33.32 846.264 33.405 846.264 33.505C846.264 33.645 846.184 33.765 846.024 33.865C845.864 33.955 845.674 34 845.454 34C845.184 34 844.944 33.975 844.734 33.925C844.524 33.875 844.319 33.725 844.119 33.475C843.929 33.225 843.834 32.825 843.834 32.275V27.205H842.739C842.619 27.205 842.514 27.165 842.424 27.085C842.344 27.005 842.304 26.905 842.304 26.785C842.304 26.665 842.344 26.565 842.424 26.485C842.514 26.405 842.619 26.365 842.739 26.365H843.834V24.7C843.834 24.57 843.874 24.465 843.954 24.385C844.044 24.295 844.154 24.25 844.284 24.25C844.414 24.25 844.519 24.295 844.599 24.385C844.689 24.465 844.734 24.57 844.734 24.7V26.365H846.234C846.344 26.365 846.439 26.41 846.519 26.5C846.609 26.59 846.654 26.69 846.654 26.8C846.654 26.92 846.614 27.02 846.534 27.1C846.454 27.17 846.354 27.205 846.234 27.205H844.734ZM854.724 29.725C854.724 29.845 854.679 29.95 854.589 30.04C854.499 30.12 854.394 30.16 854.274 30.16H848.604C848.604 30.76 848.724 31.3 848.964 31.78C849.214 32.25 849.564 32.625 850.014 32.905C850.474 33.175 851.014 33.31 851.634 33.31C852.114 33.31 852.544 33.21 852.924 33.01C853.304 32.81 853.609 32.555 853.839 32.245C853.949 32.155 854.054 32.11 854.154 32.11C854.254 32.11 854.344 32.15 854.424 32.23C854.504 32.31 854.544 32.4 854.544 32.5C854.544 32.61 854.494 32.715 854.394 32.815C854.074 33.205 853.669 33.525 853.179 33.775C852.699 34.025 852.189 34.15 851.649 34.15C850.879 34.15 850.199 33.985 849.609 33.655C849.019 33.325 848.559 32.865 848.229 32.275C847.899 31.675 847.734 30.985 847.734 30.205C847.734 29.385 847.894 28.67 848.214 28.06C848.544 27.44 848.979 26.97 849.519 26.65C850.059 26.32 850.634 26.155 851.244 26.155C851.844 26.155 852.404 26.295 852.924 26.575C853.454 26.855 853.884 27.265 854.214 27.805C854.544 28.345 854.714 28.985 854.724 29.725ZM851.244 27.025C850.664 27.025 850.124 27.225 849.624 27.625C849.134 28.025 848.819 28.6 848.679 29.35H853.794V29.23C853.744 28.78 853.594 28.39 853.344 28.06C853.094 27.72 852.779 27.465 852.399 27.295C852.029 27.115 851.644 27.025 851.244 27.025ZM862.804 22.9C862.934 22.9 863.039 22.945 863.119 23.035C863.209 23.115 863.254 23.22 863.254 23.35V33.55C863.254 33.68 863.209 33.79 863.119 33.88C863.039 33.96 862.934 34 862.804 34C862.674 34 862.564 33.96 862.474 33.88C862.394 33.79 862.354 33.68 862.354 33.55V32.5C862.104 32.96 861.729 33.35 861.229 33.67C860.739 33.99 860.194 34.15 859.594 34.15C858.934 34.15 858.334 33.98 857.794 33.64C857.264 33.29 856.844 32.81 856.534 32.2C856.224 31.59 856.069 30.905 856.069 30.145C856.069 29.395 856.224 28.715 856.534 28.105C856.844 27.495 857.264 27.02 857.794 26.68C858.334 26.33 858.929 26.155 859.579 26.155C860.169 26.155 860.714 26.305 861.214 26.605C861.714 26.895 862.094 27.275 862.354 27.745V23.35C862.354 23.22 862.394 23.115 862.474 23.035C862.564 22.945 862.674 22.9 862.804 22.9ZM859.684 33.31C860.204 33.31 860.669 33.175 861.079 32.905C861.499 32.635 861.824 32.26 862.054 31.78C862.294 31.29 862.414 30.745 862.414 30.145C862.414 29.555 862.294 29.02 862.054 28.54C861.824 28.06 861.499 27.685 861.079 27.415C860.669 27.135 860.204 26.995 859.684 26.995C859.164 26.995 858.694 27.135 858.274 27.415C857.864 27.685 857.539 28.06 857.299 28.54C857.069 29.02 856.954 29.555 856.954 30.145C856.954 30.745 857.069 31.285 857.299 31.765C857.539 32.245 857.864 32.625 858.274 32.905C858.694 33.175 859.164 33.31 859.684 33.31Z" fill="black"/>
<defs>
<filter id="filter0_d" x="13.5" y="17.1765" width="28.4647" height="29.767" filterUnits="userSpaceOnUse" color-interpolation-filters="sRGB">
<feFlood flood-opacity="0" result="BackgroundImageFix"/>
<feColorMatrix in="SourceAlpha" type="matrix" values="0 0 0 0 0 0 0 0 0 0 0 0 0 0 0 0 0 0 127 0"/>
<feOffset dy="4"/>
<feGaussianBlur stdDeviation="2"/>
<feColorMatrix type="matrix" values="0 0 0 0 0 0 0 0 0 0 0 0 0 0 0 0 0 0 0.25 0"/>
<feBlend mode="normal" in2="BackgroundImageFix" result="effect1_dropShadow"/>
<feBlend mode="normal" in="SourceGraphic" in2="effect1_dropShadow" result="shape"/>
</filter>
<filter id="filter1_d" x="228.453" y="17" width="27.0474" height="30" filterUnits="userSpaceOnUse" color-interpolation-filters="sRGB">
<feFlood flood-opacity="0" result="BackgroundImageFix"/>
<feColorMatrix in="SourceAlpha" type="matrix" values="0 0 0 0 0 0 0 0 0 0 0 0 0 0 0 0 0 0 127 0"/>
<feOffset dy="4"/>
<feGaussianBlur stdDeviation="2"/>
<feColorMatrix type="matrix" values="0 0 0 0 0 0 0 0 0 0 0 0 0 0 0 0 0 0 0.25 0"/>
<feBlend mode="normal" in2="BackgroundImageFix" result="effect1_dropShadow"/>
<feBlend mode="normal" in="SourceGraphic" in2="effect1_dropShadow" result="shape"/>
</filter>
<filter id="filter2_d" x="444.5" y="17" width="25" height="30" filterUnits="userSpaceOnUse" color-interpolation-filters="sRGB">
<feFlood flood-opacity="0" result="BackgroundImageFix"/>
<feColorMatrix in="SourceAlpha" type="matrix" values="0 0 0 0 0 0 0 0 0 0 0 0 0 0 0 0 0 0 127 0"/>
<feOffset dy="4"/>
<feGaussianBlur stdDeviation="2"/>
<feColorMatrix type="matrix" values="0 0 0 0 0 0 0 0 0 0 0 0 0 0 0 0 0 0 0.25 0"/>
<feBlend mode="normal" in2="BackgroundImageFix" result="effect1_dropShadow"/>
<feBlend mode="normal" in="SourceGraphic" in2="effect1_dropShadow" result="shape"/>
</filter>
<filter id="filter3_d" x="653" y="17" width="24" height="30" filterUnits="userSpaceOnUse" color-interpolation-filters="sRGB">
<feFlood flood-opacity="0" result="BackgroundImageFix"/>
<feColorMatrix in="SourceAlpha" type="matrix" values="0 0 0 0 0 0 0 0 0 0 0 0 0 0 0 0 0 0 127 0"/>
<feOffset dy="4"/>
<feGaussianBlur stdDeviation="2"/>
<feColorMatrix type="matrix" values="0 0 0 0 0 0 0 0 0 0 0 0 0 0 0 0 0 0 0.25 0"/>
<feBlend mode="normal" in2="BackgroundImageFix" result="effect1_dropShadow"/>
<feBlend mode="normal" in="SourceGraphic" in2="effect1_dropShadow" result="shape"/>
</filter>
</defs>
</svg>
