<svg viewBox="0 0 34 34" fill="none" xmlns="http://www.w3.org/2000/svg">
<path fill-rule="evenodd" clip-rule="evenodd" d="M15.2202 18.4561L18.7995 20.3367C19.5881 19.3054 20.7408 18.6988 22.0754 18.6988C24.32 18.6988 26.2614 20.3974 26.2614 22.642C26.2614 24.8867 24.4414 26.7673 22.1361 26.7673C19.8914 26.7673 18.0108 24.9473 18.0108 22.642C18.0108 22.383 18.0551 22.1681 18.1058 21.922C18.1144 21.8799 18.1233 21.837 18.1321 21.7927L14.3102 19.8514C13.5215 20.6401 12.5509 21.0647 11.3982 21.0647C9.15359 21.0647 7.27295 19.1841 7.27295 16.9394C7.27295 14.6948 9.09292 12.8142 11.3982 12.8142C12.4295 12.8142 13.4002 13.2388 14.1282 13.9062L18.0108 11.9042C17.9501 11.7222 17.9501 11.5402 17.9501 11.3582C17.9501 9.11355 19.7701 7.23291 22.0754 7.23291C24.32 7.23291 26.2007 9.11355 26.2007 11.3582C26.2007 13.6028 24.3807 15.4835 22.0754 15.4835C20.6194 15.4835 19.3454 14.7555 18.6175 13.6635L15.1595 15.4835C15.3415 15.9688 15.4628 16.5148 15.4628 17.0608C15.4628 17.5461 15.4022 18.0314 15.2202 18.4561ZM23.1067 9.35621C22.8034 9.23488 22.4394 9.11355 22.0754 9.11355C20.9228 9.11355 19.9521 9.96287 19.7701 10.9942C19.7094 11.1155 19.7094 11.2369 19.7094 11.3582C19.7094 11.9042 19.9521 12.3895 20.2554 12.8142C20.6801 13.2995 21.3474 13.6635 22.0754 13.6635C23.3494 13.6635 24.3807 12.6322 24.3807 11.3582C24.3807 11.1155 24.32 10.8729 24.2594 10.6302C24.0774 10.0842 23.6527 9.59888 23.1067 9.35621ZM12.4295 19.0627C12.1262 19.2447 11.7016 19.3661 11.3376 19.3661C10.0636 19.3661 9.03226 18.3348 9.03226 17.0608C9.03226 15.7868 10.0636 14.7555 11.3376 14.7555C11.6409 14.7555 12.0049 14.8161 12.2475 14.9375C12.8542 15.1801 13.2789 15.7261 13.5215 16.3328C13.5822 16.5754 13.6429 16.8181 13.6429 17.0608C13.6429 17.2428 13.6429 17.4248 13.5822 17.6068C13.4002 18.2134 12.9755 18.7594 12.4295 19.0627ZM23.4101 24.644C23.8347 24.3407 24.138 23.8553 24.2594 23.37C24.32 23.188 24.3807 23.006 24.32 22.824C24.32 21.55 23.2887 20.5187 22.0147 20.5187C21.4081 20.5187 20.8621 20.7614 20.4374 21.1861C19.9521 21.6107 19.7094 22.1567 19.7094 22.824C19.7094 24.098 20.7408 25.1293 22.0147 25.1293C22.5607 25.1293 23.0461 24.9473 23.4101 24.644Z" fill="white"/>
</svg>
